<?xml version="1.0" encoding="UTF-8" standalone="no"?>
<!DOCTYPE svg PUBLIC "-//W3C//DTD SVG 1.1//EN"
 "http://www.w3.org/Graphics/SVG/1.1/DTD/svg11.dtd">
<!-- Generated by graphviz version 2.47.0 (20210316.0004)
 -->
<!-- Title: G Pages: 1 -->
<svg width="264pt" height="635pt"
 viewBox="0.00 0.00 264.00 635.00" xmlns="http://www.w3.org/2000/svg" xmlns:xlink="http://www.w3.org/1999/xlink">
<g id="graph0" class="graph" transform="scale(1 1) rotate(0) translate(4 631)">
<title>G</title>
<polygon fill="white" stroke="transparent" points="-4,4 -4,-631 260,-631 260,4 -4,4"/>
<!-- github.com/nikolaydubina/calendarheatmap -->
<g id="node1" class="node">
<title>github.com/nikolaydubina/calendarheatmap</title>
<polygon fill="none" stroke="black" points="0,-396.5 0,-626.5 256,-626.5 256,-396.5 0,-396.5"/>
<text text-anchor="middle" x="128" y="-611.3" font-family="Times,serif" font-size="14.00">github.com/nikolaydubina/calendarheatmap</text>
<polyline fill="none" stroke="black" points="0,-603.5 256,-603.5 "/>
<text text-anchor="start" x="8" y="-588.3" font-family="Times,serif" font-size="14.00">can_get_codecov</text>
<polyline fill="none" stroke="black" points="164,-580.5 164,-603.5 "/>
<text text-anchor="end" x="248" y="-588.3" font-family="Times,serif" font-size="14.00">true</text>
<polyline fill="none" stroke="black" points="0,-580.5 256,-580.5 "/>
<text text-anchor="start" x="8" y="-565.3" font-family="Times,serif" font-size="14.00">can_get_gitstats</text>
<polyline fill="none" stroke="black" points="161,-557.5 161,-580.5 "/>
<text text-anchor="end" x="248" y="-565.3" font-family="Times,serif" font-size="14.00">true</text>
<polyline fill="none" stroke="black" points="0,-557.5 256,-557.5 "/>
<text text-anchor="start" x="8" y="-542.3" font-family="Times,serif" font-size="14.00">can_run_tests</text>
<polyline fill="none" stroke="black" points="152,-534.5 152,-557.5 "/>
<text text-anchor="end" x="248" y="-542.3" font-family="Times,serif" font-size="14.00">false</text>
<polyline fill="none" stroke="black" points="0,-534.5 256,-534.5 "/>
<text text-anchor="start" x="8" y="-519.3" font-family="Times,serif" font-size="14.00">codecov_coverage</text>
<polyline fill="none" stroke="black" points="163,-511.5 163,-534.5 "/>
<text text-anchor="end" x="248" y="-519.3" font-family="Times,serif" font-size="14.00">80.08</text>
<polyline fill="none" stroke="black" points="0,-511.5 256,-511.5 "/>
<text text-anchor="start" x="8" y="-496.3" font-family="Times,serif" font-size="14.00">codecov_files</text>
<polyline fill="none" stroke="black" points="162,-488.5 162,-511.5 "/>
<text text-anchor="end" x="248" y="-496.3" font-family="Times,serif" font-size="14.00">6</text>
<polyline fill="none" stroke="black" points="0,-488.5 256,-488.5 "/>
<text text-anchor="start" x="8" y="-473.3" font-family="Times,serif" font-size="14.00">codecov_lines</text>
<polyline fill="none" stroke="black" points="156,-465.5 156,-488.5 "/>
<text text-anchor="end" x="248" y="-473.3" font-family="Times,serif" font-size="14.00">236</text>
<polyline fill="none" stroke="black" points="0,-465.5 256,-465.5 "/>
<text text-anchor="start" x="8" y="-450.3" font-family="Times,serif" font-size="14.00">git_last_commit</text>
<polyline fill="none" stroke="black" points="141,-442.5 141,-465.5 "/>
<text text-anchor="end" x="248" y="-450.3" font-family="Times,serif" font-size="14.00">2021&#45;04&#45;17</text>
<polyline fill="none" stroke="black" points="0,-442.5 256,-442.5 "/>
<text text-anchor="start" x="8" y="-427.3" font-family="Times,serif" font-size="14.00">git_last_commit_days_since</text>
<polyline fill="none" stroke="black" points="202,-419.5 202,-442.5 "/>
<text text-anchor="end" x="248" y="-427.3" font-family="Times,serif" font-size="14.00">4</text>
<polyline fill="none" stroke="black" points="0,-419.5 256,-419.5 "/>
<text text-anchor="start" x="8" y="-404.3" font-family="Times,serif" font-size="14.00">git_num_contributors</text>
<polyline fill="none" stroke="black" points="183,-396.5 183,-419.5 "/>
<text text-anchor="end" x="248" y="-404.3" font-family="Times,serif" font-size="14.00">2</text>
</g>
<!-- golang.org/x/image -->
<g id="node2" class="node">
<title>golang.org/x/image</title>
<polygon fill="none" stroke="black" points="27,-198.5 27,-359.5 229,-359.5 229,-198.5 27,-198.5"/>
<text text-anchor="middle" x="128" y="-344.3" font-family="Times,serif" font-size="14.00">golang.org/x/image</text>
<polyline fill="none" stroke="black" points="27,-336.5 229,-336.5 "/>
<text text-anchor="start" x="35" y="-321.3" font-family="Times,serif" font-size="14.00">can_get_codecov</text>
<polyline fill="none" stroke="black" points="162,-313.5 162,-336.5 "/>
<text text-anchor="end" x="221" y="-321.3" font-family="Times,serif" font-size="14.00">false</text>
<polyline fill="none" stroke="black" points="27,-313.5 229,-313.5 "/>
<text text-anchor="start" x="35" y="-298.3" font-family="Times,serif" font-size="14.00">can_get_gitstats</text>
<polyline fill="none" stroke="black" points="161,-290.5 161,-313.5 "/>
<text text-anchor="end" x="221" y="-298.3" font-family="Times,serif" font-size="14.00">true</text>
<polyline fill="none" stroke="black" points="27,-290.5 229,-290.5 "/>
<text text-anchor="start" x="35" y="-275.3" font-family="Times,serif" font-size="14.00">can_run_tests</text>
<polyline fill="none" stroke="black" points="152,-267.5 152,-290.5 "/>
<text text-anchor="end" x="221" y="-275.3" font-family="Times,serif" font-size="14.00">false</text>
<polyline fill="none" stroke="black" points="27,-267.5 229,-267.5 "/>
<text text-anchor="start" x="35" y="-252.3" font-family="Times,serif" font-size="14.00">git_last_commit</text>
<polyline fill="none" stroke="black" points="141,-244.5 141,-267.5 "/>
<text text-anchor="end" x="221" y="-252.3" font-family="Times,serif" font-size="14.00">2021&#45;02&#45;20</text>
<polyline fill="none" stroke="black" points="27,-244.5 229,-244.5 "/>
<text text-anchor="start" x="35" y="-229.3" font-family="Times,serif" font-size="14.00">git_last_commit_days_since</text>
<polyline fill="none" stroke="black" points="199,-221.5 199,-244.5 "/>
<text text-anchor="end" x="221" y="-229.3" font-family="Times,serif" font-size="14.00">60</text>
<polyline fill="none" stroke="black" points="27,-221.5 229,-221.5 "/>
<text text-anchor="start" x="35" y="-206.3" font-family="Times,serif" font-size="14.00">git_num_contributors</text>
<polyline fill="none" stroke="black" points="180,-198.5 180,-221.5 "/>
<text text-anchor="end" x="221" y="-206.3" font-family="Times,serif" font-size="14.00">44</text>
</g>
<!-- github.com/nikolaydubina/calendarheatmap&#45;&gt;golang.org/x/image -->
<g id="edge1" class="edge">
<title>github.com/nikolaydubina/calendarheatmap&#45;&gt;golang.org/x/image</title>
<path fill="none" stroke="black" d="M128,-396.26C128,-387.39 128,-378.52 128,-369.84"/>
<polygon fill="black" stroke="black" points="131.5,-369.76 128,-359.76 124.5,-369.76 131.5,-369.76"/>
</g>
<!-- golang.org/x/text -->
<g id="node3" class="node">
<title>golang.org/x/text</title>
<polygon fill="none" stroke="black" points="27,-0.5 27,-161.5 229,-161.5 229,-0.5 27,-0.5"/>
<text text-anchor="middle" x="128" y="-146.3" font-family="Times,serif" font-size="14.00">golang.org/x/text</text>
<polyline fill="none" stroke="black" points="27,-138.5 229,-138.5 "/>
<text text-anchor="start" x="35" y="-123.3" font-family="Times,serif" font-size="14.00">can_get_codecov</text>
<polyline fill="none" stroke="black" points="162,-115.5 162,-138.5 "/>
<text text-anchor="end" x="221" y="-123.3" font-family="Times,serif" font-size="14.00">false</text>
<polyline fill="none" stroke="black" points="27,-115.5 229,-115.5 "/>
<text text-anchor="start" x="35" y="-100.3" font-family="Times,serif" font-size="14.00">can_get_gitstats</text>
<polyline fill="none" stroke="black" points="161,-92.5 161,-115.5 "/>
<text text-anchor="end" x="221" y="-100.3" font-family="Times,serif" font-size="14.00">true</text>
<polyline fill="none" stroke="black" points="27,-92.5 229,-92.5 "/>
<text text-anchor="start" x="35" y="-77.3" font-family="Times,serif" font-size="14.00">can_run_tests</text>
<polyline fill="none" stroke="black" points="152,-69.5 152,-92.5 "/>
<text text-anchor="end" x="221" y="-77.3" font-family="Times,serif" font-size="14.00">false</text>
<polyline fill="none" stroke="black" points="27,-69.5 229,-69.5 "/>
<text text-anchor="start" x="35" y="-54.3" font-family="Times,serif" font-size="14.00">git_last_commit</text>
<polyline fill="none" stroke="black" points="141,-46.5 141,-69.5 "/>
<text text-anchor="end" x="221" y="-54.3" font-family="Times,serif" font-size="14.00">2021&#45;04&#45;11</text>
<polyline fill="none" stroke="black" points="27,-46.5 229,-46.5 "/>
<text text-anchor="start" x="35" y="-31.3" font-family="Times,serif" font-size="14.00">git_last_commit_days_since</text>
<polyline fill="none" stroke="black" points="199,-23.5 199,-46.5 "/>
<text text-anchor="end" x="221" y="-31.3" font-family="Times,serif" font-size="14.00">10</text>
<polyline fill="none" stroke="black" points="27,-23.5 229,-23.5 "/>
<text text-anchor="start" x="35" y="-8.3" font-family="Times,serif" font-size="14.00">git_num_contributors</text>
<polyline fill="none" stroke="black" points="180,-0.5 180,-23.5 "/>
<text text-anchor="end" x="221" y="-8.3" font-family="Times,serif" font-size="14.00">56</text>
</g>
<!-- golang.org/x/image&#45;&gt;golang.org/x/text -->
<g id="edge2" class="edge">
<title>golang.org/x/image&#45;&gt;golang.org/x/text</title>
<path fill="none" stroke="black" d="M128,-198.28C128,-189.6 128,-180.71 128,-171.92"/>
<polygon fill="black" stroke="black" points="131.5,-171.65 128,-161.65 124.5,-171.65 131.5,-171.65"/>
</g>
</g>
</svg>
