<?xml version="1.0" encoding="UTF-8" standalone="no"?>
<!DOCTYPE svg PUBLIC "-//W3C//DTD SVG 1.1//EN"
 "http://www.w3.org/Graphics/SVG/1.1/DTD/svg11.dtd">
<!-- Generated by graphviz version 2.47.0 (20210316.0004)
 -->
<!-- Title: G Pages: 1 -->
<svg width="264pt" height="1325pt"
 viewBox="0.00 0.00 264.00 1325.00" xmlns="http://www.w3.org/2000/svg" xmlns:xlink="http://www.w3.org/1999/xlink">
<g id="graph0" class="graph" transform="scale(1 1) rotate(0) translate(4 1321)">
<title>G</title>
<polygon fill="white" stroke="transparent" points="-4,4 -4,-1321 260,-1321 260,4 -4,4"/>
<!-- github.com/nikolaydubina/calendarheatmap -->
<g id="node1" class="node">
<title>github.com/nikolaydubina/calendarheatmap</title>
<polygon fill="none" stroke="black" points="0,-856.5 0,-1316.5 256,-1316.5 256,-856.5 0,-856.5"/>
<text text-anchor="middle" x="128" y="-1301.3" font-family="Times,serif" font-size="14.00">github.com/nikolaydubina/calendarheatmap</text>
<polyline fill="none" stroke="black" points="0,-1293.5 256,-1293.5 "/>
<text text-anchor="start" x="8" y="-1278.3" font-family="Times,serif" font-size="14.00">can_get_codecov</text>
<polyline fill="none" stroke="black" points="164,-1270.5 164,-1293.5 "/>
<text text-anchor="end" x="248" y="-1278.3" font-family="Times,serif" font-size="14.00">true</text>
<polyline fill="none" stroke="black" points="0,-1270.5 256,-1270.5 "/>
<text text-anchor="start" x="8" y="-1255.3" font-family="Times,serif" font-size="14.00">can_get_gitstats</text>
<polyline fill="none" stroke="black" points="161,-1247.5 161,-1270.5 "/>
<text text-anchor="end" x="248" y="-1255.3" font-family="Times,serif" font-size="14.00">true</text>
<polyline fill="none" stroke="black" points="0,-1247.5 256,-1247.5 "/>
<text text-anchor="start" x="8" y="-1232.3" font-family="Times,serif" font-size="14.00">can_run_tests</text>
<polyline fill="none" stroke="black" points="154,-1224.5 154,-1247.5 "/>
<text text-anchor="end" x="248" y="-1232.3" font-family="Times,serif" font-size="14.00">true</text>
<polyline fill="none" stroke="black" points="0,-1224.5 256,-1224.5 "/>
<text text-anchor="start" x="8" y="-1209.3" font-family="Times,serif" font-size="14.00">codecov_coverage</text>
<polyline fill="none" stroke="black" points="163,-1201.5 163,-1224.5 "/>
<text text-anchor="end" x="248" y="-1209.3" font-family="Times,serif" font-size="14.00">80.08</text>
<polyline fill="none" stroke="black" points="0,-1201.5 256,-1201.5 "/>
<text text-anchor="start" x="8" y="-1186.3" font-family="Times,serif" font-size="14.00">codecov_files</text>
<polyline fill="none" stroke="black" points="162,-1178.5 162,-1201.5 "/>
<text text-anchor="end" x="248" y="-1186.3" font-family="Times,serif" font-size="14.00">6</text>
<polyline fill="none" stroke="black" points="0,-1178.5 256,-1178.5 "/>
<text text-anchor="start" x="8" y="-1163.3" font-family="Times,serif" font-size="14.00">codecov_lines</text>
<polyline fill="none" stroke="black" points="156,-1155.5 156,-1178.5 "/>
<text text-anchor="end" x="248" y="-1163.3" font-family="Times,serif" font-size="14.00">236</text>
<polyline fill="none" stroke="black" points="0,-1155.5 256,-1155.5 "/>
<text text-anchor="start" x="8" y="-1140.3" font-family="Times,serif" font-size="14.00">git_last_commit</text>
<polyline fill="none" stroke="black" points="141,-1132.5 141,-1155.5 "/>
<text text-anchor="end" x="248" y="-1140.3" font-family="Times,serif" font-size="14.00">2021&#45;04&#45;17</text>
<polyline fill="none" stroke="black" points="0,-1132.5 256,-1132.5 "/>
<text text-anchor="start" x="8" y="-1117.3" font-family="Times,serif" font-size="14.00">git_last_commit_days_since</text>
<polyline fill="none" stroke="black" points="193,-1109.5 193,-1132.5 "/>
<text text-anchor="end" x="248" y="-1117.3" font-family="Times,serif" font-size="14.00">3.69</text>
<polyline fill="none" stroke="black" points="0,-1109.5 256,-1109.5 "/>
<text text-anchor="start" x="8" y="-1094.3" font-family="Times,serif" font-size="14.00">git_last_commit_months_since</text>
<polyline fill="none" stroke="black" points="201,-1086.5 201,-1109.5 "/>
<text text-anchor="end" x="248" y="-1094.3" font-family="Times,serif" font-size="14.00">0.13</text>
<polyline fill="none" stroke="black" points="0,-1086.5 256,-1086.5 "/>
<text text-anchor="start" x="8" y="-1071.3" font-family="Times,serif" font-size="14.00">git_last_commit_years_since</text>
<polyline fill="none" stroke="black" points="195,-1063.5 195,-1086.5 "/>
<text text-anchor="end" x="248" y="-1071.3" font-family="Times,serif" font-size="14.00">0.01</text>
<polyline fill="none" stroke="black" points="0,-1063.5 256,-1063.5 "/>
<text text-anchor="start" x="8" y="-1048.3" font-family="Times,serif" font-size="14.00">git_num_contributors</text>
<polyline fill="none" stroke="black" points="183,-1040.5 183,-1063.5 "/>
<text text-anchor="end" x="248" y="-1048.3" font-family="Times,serif" font-size="14.00">2</text>
<polyline fill="none" stroke="black" points="0,-1040.5 256,-1040.5 "/>
<text text-anchor="start" x="8" y="-1025.3" font-family="Times,serif" font-size="14.00">has_test_files</text>
<polyline fill="none" stroke="black" points="153,-1017.5 153,-1040.5 "/>
<text text-anchor="end" x="248" y="-1025.3" font-family="Times,serif" font-size="14.00">true</text>
<polyline fill="none" stroke="black" points="0,-1017.5 256,-1017.5 "/>
<text text-anchor="start" x="8" y="-1002.3" font-family="Times,serif" font-size="14.00">has_tests</text>
<polyline fill="none" stroke="black" points="141,-994.5 141,-1017.5 "/>
<text text-anchor="end" x="248" y="-1002.3" font-family="Times,serif" font-size="14.00">true</text>
<polyline fill="none" stroke="black" points="0,-994.5 256,-994.5 "/>
<text text-anchor="start" x="8" y="-979.3" font-family="Times,serif" font-size="14.00">num_packages</text>
<polyline fill="none" stroke="black" points="165,-971.5 165,-994.5 "/>
<text text-anchor="end" x="248" y="-979.3" font-family="Times,serif" font-size="14.00">2</text>
<polyline fill="none" stroke="black" points="0,-971.5 256,-971.5 "/>
<text text-anchor="start" x="8" y="-956.3" font-family="Times,serif" font-size="14.00">num_packages_tests_passed</text>
<polyline fill="none" stroke="black" points="202,-948.5 202,-971.5 "/>
<text text-anchor="end" x="248" y="-956.3" font-family="Times,serif" font-size="14.00">1</text>
<polyline fill="none" stroke="black" points="0,-948.5 256,-948.5 "/>
<text text-anchor="start" x="8" y="-933.3" font-family="Times,serif" font-size="14.00">num_packages_with_tests</text>
<polyline fill="none" stroke="black" points="196,-925.5 196,-948.5 "/>
<text text-anchor="end" x="248" y="-933.3" font-family="Times,serif" font-size="14.00">1</text>
<polyline fill="none" stroke="black" points="0,-925.5 256,-925.5 "/>
<text text-anchor="start" x="8" y="-910.3" font-family="Times,serif" font-size="14.00">num_packages_with_tests_files</text>
<polyline fill="none" stroke="black" points="210,-902.5 210,-925.5 "/>
<text text-anchor="end" x="248" y="-910.3" font-family="Times,serif" font-size="14.00">1</text>
<polyline fill="none" stroke="black" points="0,-902.5 256,-902.5 "/>
<text text-anchor="start" x="8" y="-887.3" font-family="Times,serif" font-size="14.00">package_coverage_avg</text>
<polyline fill="none" stroke="black" points="176,-879.5 176,-902.5 "/>
<text text-anchor="end" x="248" y="-887.3" font-family="Times,serif" font-size="14.00">85.30</text>
<polyline fill="none" stroke="black" points="0,-879.5 256,-879.5 "/>
<text text-anchor="start" x="8" y="-864.3" font-family="Times,serif" font-size="14.00">package_coverage_min</text>
<polyline fill="none" stroke="black" points="177,-856.5 177,-879.5 "/>
<text text-anchor="end" x="248" y="-864.3" font-family="Times,serif" font-size="14.00">85.30</text>
</g>
<!-- golang.org/x/image -->
<g id="node2" class="node">
<title>golang.org/x/image</title>
<polygon fill="none" stroke="black" points="13.5,-428.5 13.5,-819.5 242.5,-819.5 242.5,-428.5 13.5,-428.5"/>
<text text-anchor="middle" x="128" y="-804.3" font-family="Times,serif" font-size="14.00">golang.org/x/image</text>
<polyline fill="none" stroke="black" points="13.5,-796.5 242.5,-796.5 "/>
<text text-anchor="start" x="21.5" y="-781.3" font-family="Times,serif" font-size="14.00">can_get_codecov</text>
<polyline fill="none" stroke="black" points="161.5,-773.5 161.5,-796.5 "/>
<text text-anchor="end" x="234.5" y="-781.3" font-family="Times,serif" font-size="14.00">false</text>
<polyline fill="none" stroke="black" points="13.5,-773.5 242.5,-773.5 "/>
<text text-anchor="start" x="21.5" y="-758.3" font-family="Times,serif" font-size="14.00">can_get_gitstats</text>
<polyline fill="none" stroke="black" points="160.5,-750.5 160.5,-773.5 "/>
<text text-anchor="end" x="234.5" y="-758.3" font-family="Times,serif" font-size="14.00">true</text>
<polyline fill="none" stroke="black" points="13.5,-750.5 242.5,-750.5 "/>
<text text-anchor="start" x="21.5" y="-735.3" font-family="Times,serif" font-size="14.00">can_run_tests</text>
<polyline fill="none" stroke="black" points="154.5,-727.5 154.5,-750.5 "/>
<text text-anchor="end" x="234.5" y="-735.3" font-family="Times,serif" font-size="14.00">true</text>
<polyline fill="none" stroke="black" points="13.5,-727.5 242.5,-727.5 "/>
<text text-anchor="start" x="21.5" y="-712.3" font-family="Times,serif" font-size="14.00">git_last_commit</text>
<polyline fill="none" stroke="black" points="140.5,-704.5 140.5,-727.5 "/>
<text text-anchor="end" x="234.5" y="-712.3" font-family="Times,serif" font-size="14.00">2021&#45;02&#45;20</text>
<polyline fill="none" stroke="black" points="13.5,-704.5 242.5,-704.5 "/>
<text text-anchor="start" x="21.5" y="-689.3" font-family="Times,serif" font-size="14.00">git_last_commit_days_since</text>
<polyline fill="none" stroke="black" points="190.5,-681.5 190.5,-704.5 "/>
<text text-anchor="end" x="234.5" y="-689.3" font-family="Times,serif" font-size="14.00">59.39</text>
<polyline fill="none" stroke="black" points="13.5,-681.5 242.5,-681.5 "/>
<text text-anchor="start" x="21.5" y="-666.3" font-family="Times,serif" font-size="14.00">git_last_commit_months_since</text>
<polyline fill="none" stroke="black" points="201.5,-658.5 201.5,-681.5 "/>
<text text-anchor="end" x="234.5" y="-666.3" font-family="Times,serif" font-size="14.00">2.12</text>
<polyline fill="none" stroke="black" points="13.5,-658.5 242.5,-658.5 "/>
<text text-anchor="start" x="21.5" y="-643.3" font-family="Times,serif" font-size="14.00">git_last_commit_years_since</text>
<polyline fill="none" stroke="black" points="195.5,-635.5 195.5,-658.5 "/>
<text text-anchor="end" x="234.5" y="-643.3" font-family="Times,serif" font-size="14.00">0.18</text>
<polyline fill="none" stroke="black" points="13.5,-635.5 242.5,-635.5 "/>
<text text-anchor="start" x="21.5" y="-620.3" font-family="Times,serif" font-size="14.00">git_num_contributors</text>
<polyline fill="none" stroke="black" points="179.5,-612.5 179.5,-635.5 "/>
<text text-anchor="end" x="234.5" y="-620.3" font-family="Times,serif" font-size="14.00">44</text>
<polyline fill="none" stroke="black" points="13.5,-612.5 242.5,-612.5 "/>
<text text-anchor="start" x="21.5" y="-597.3" font-family="Times,serif" font-size="14.00">has_test_files</text>
<polyline fill="none" stroke="black" points="153.5,-589.5 153.5,-612.5 "/>
<text text-anchor="end" x="234.5" y="-597.3" font-family="Times,serif" font-size="14.00">true</text>
<polyline fill="none" stroke="black" points="13.5,-589.5 242.5,-589.5 "/>
<text text-anchor="start" x="21.5" y="-574.3" font-family="Times,serif" font-size="14.00">has_tests</text>
<polyline fill="none" stroke="black" points="141.5,-566.5 141.5,-589.5 "/>
<text text-anchor="end" x="234.5" y="-574.3" font-family="Times,serif" font-size="14.00">true</text>
<polyline fill="none" stroke="black" points="13.5,-566.5 242.5,-566.5 "/>
<text text-anchor="start" x="21.5" y="-551.3" font-family="Times,serif" font-size="14.00">num_packages</text>
<polyline fill="none" stroke="black" points="161.5,-543.5 161.5,-566.5 "/>
<text text-anchor="end" x="234.5" y="-551.3" font-family="Times,serif" font-size="14.00">32</text>
<polyline fill="none" stroke="black" points="13.5,-543.5 242.5,-543.5 "/>
<text text-anchor="start" x="21.5" y="-528.3" font-family="Times,serif" font-size="14.00">num_packages_tests_passed</text>
<polyline fill="none" stroke="black" points="198.5,-520.5 198.5,-543.5 "/>
<text text-anchor="end" x="234.5" y="-528.3" font-family="Times,serif" font-size="14.00">14</text>
<polyline fill="none" stroke="black" points="13.5,-520.5 242.5,-520.5 "/>
<text text-anchor="start" x="21.5" y="-505.3" font-family="Times,serif" font-size="14.00">num_packages_with_tests</text>
<polyline fill="none" stroke="black" points="192.5,-497.5 192.5,-520.5 "/>
<text text-anchor="end" x="234.5" y="-505.3" font-family="Times,serif" font-size="14.00">14</text>
<polyline fill="none" stroke="black" points="13.5,-497.5 242.5,-497.5 "/>
<text text-anchor="start" x="21.5" y="-482.3" font-family="Times,serif" font-size="14.00">num_packages_with_tests_files</text>
<polyline fill="none" stroke="black" points="206.5,-474.5 206.5,-497.5 "/>
<text text-anchor="end" x="234.5" y="-482.3" font-family="Times,serif" font-size="14.00">14</text>
<polyline fill="none" stroke="black" points="13.5,-474.5 242.5,-474.5 "/>
<text text-anchor="start" x="21.5" y="-459.3" font-family="Times,serif" font-size="14.00">package_coverage_avg</text>
<polyline fill="none" stroke="black" points="178.5,-451.5 178.5,-474.5 "/>
<text text-anchor="end" x="234.5" y="-459.3" font-family="Times,serif" font-size="14.00">5.60</text>
<polyline fill="none" stroke="black" points="13.5,-451.5 242.5,-451.5 "/>
<text text-anchor="start" x="21.5" y="-436.3" font-family="Times,serif" font-size="14.00">package_coverage_min</text>
<polyline fill="none" stroke="black" points="185.5,-428.5 185.5,-451.5 "/>
<text text-anchor="end" x="234.5" y="-436.3" font-family="Times,serif" font-size="14.00">54</text>
</g>
<!-- github.com/nikolaydubina/calendarheatmap&#45;&gt;golang.org/x/image -->
<g id="edge1" class="edge">
<title>github.com/nikolaydubina/calendarheatmap&#45;&gt;golang.org/x/image</title>
<path fill="none" stroke="black" d="M128,-856.26C128,-847.33 128,-838.4 128,-829.52"/>
<polygon fill="black" stroke="black" points="131.5,-829.52 128,-819.52 124.5,-829.52 131.5,-829.52"/>
</g>
<!-- golang.org/x/text -->
<g id="node3" class="node">
<title>golang.org/x/text</title>
<polygon fill="none" stroke="black" points="13.5,-0.5 13.5,-391.5 242.5,-391.5 242.5,-0.5 13.5,-0.5"/>
<text text-anchor="middle" x="128" y="-376.3" font-family="Times,serif" font-size="14.00">golang.org/x/text</text>
<polyline fill="none" stroke="black" points="13.5,-368.5 242.5,-368.5 "/>
<text text-anchor="start" x="21.5" y="-353.3" font-family="Times,serif" font-size="14.00">can_get_codecov</text>
<polyline fill="none" stroke="black" points="161.5,-345.5 161.5,-368.5 "/>
<text text-anchor="end" x="234.5" y="-353.3" font-family="Times,serif" font-size="14.00">false</text>
<polyline fill="none" stroke="black" points="13.5,-345.5 242.5,-345.5 "/>
<text text-anchor="start" x="21.5" y="-330.3" font-family="Times,serif" font-size="14.00">can_get_gitstats</text>
<polyline fill="none" stroke="black" points="160.5,-322.5 160.5,-345.5 "/>
<text text-anchor="end" x="234.5" y="-330.3" font-family="Times,serif" font-size="14.00">true</text>
<polyline fill="none" stroke="black" points="13.5,-322.5 242.5,-322.5 "/>
<text text-anchor="start" x="21.5" y="-307.3" font-family="Times,serif" font-size="14.00">can_run_tests</text>
<polyline fill="none" stroke="black" points="154.5,-299.5 154.5,-322.5 "/>
<text text-anchor="end" x="234.5" y="-307.3" font-family="Times,serif" font-size="14.00">true</text>
<polyline fill="none" stroke="black" points="13.5,-299.5 242.5,-299.5 "/>
<text text-anchor="start" x="21.5" y="-284.3" font-family="Times,serif" font-size="14.00">git_last_commit</text>
<polyline fill="none" stroke="black" points="140.5,-276.5 140.5,-299.5 "/>
<text text-anchor="end" x="234.5" y="-284.3" font-family="Times,serif" font-size="14.00">2021&#45;04&#45;11</text>
<polyline fill="none" stroke="black" points="13.5,-276.5 242.5,-276.5 "/>
<text text-anchor="start" x="21.5" y="-261.3" font-family="Times,serif" font-size="14.00">git_last_commit_days_since</text>
<polyline fill="none" stroke="black" points="193.5,-253.5 193.5,-276.5 "/>
<text text-anchor="end" x="234.5" y="-261.3" font-family="Times,serif" font-size="14.00">9.36</text>
<polyline fill="none" stroke="black" points="13.5,-253.5 242.5,-253.5 "/>
<text text-anchor="start" x="21.5" y="-238.3" font-family="Times,serif" font-size="14.00">git_last_commit_months_since</text>
<polyline fill="none" stroke="black" points="201.5,-230.5 201.5,-253.5 "/>
<text text-anchor="end" x="234.5" y="-238.3" font-family="Times,serif" font-size="14.00">0.33</text>
<polyline fill="none" stroke="black" points="13.5,-230.5 242.5,-230.5 "/>
<text text-anchor="start" x="21.5" y="-215.3" font-family="Times,serif" font-size="14.00">git_last_commit_years_since</text>
<polyline fill="none" stroke="black" points="195.5,-207.5 195.5,-230.5 "/>
<text text-anchor="end" x="234.5" y="-215.3" font-family="Times,serif" font-size="14.00">0.03</text>
<polyline fill="none" stroke="black" points="13.5,-207.5 242.5,-207.5 "/>
<text text-anchor="start" x="21.5" y="-192.3" font-family="Times,serif" font-size="14.00">git_num_contributors</text>
<polyline fill="none" stroke="black" points="179.5,-184.5 179.5,-207.5 "/>
<text text-anchor="end" x="234.5" y="-192.3" font-family="Times,serif" font-size="14.00">56</text>
<polyline fill="none" stroke="black" points="13.5,-184.5 242.5,-184.5 "/>
<text text-anchor="start" x="21.5" y="-169.3" font-family="Times,serif" font-size="14.00">has_test_files</text>
<polyline fill="none" stroke="black" points="153.5,-161.5 153.5,-184.5 "/>
<text text-anchor="end" x="234.5" y="-169.3" font-family="Times,serif" font-size="14.00">true</text>
<polyline fill="none" stroke="black" points="13.5,-161.5 242.5,-161.5 "/>
<text text-anchor="start" x="21.5" y="-146.3" font-family="Times,serif" font-size="14.00">has_tests</text>
<polyline fill="none" stroke="black" points="141.5,-138.5 141.5,-161.5 "/>
<text text-anchor="end" x="234.5" y="-146.3" font-family="Times,serif" font-size="14.00">true</text>
<polyline fill="none" stroke="black" points="13.5,-138.5 242.5,-138.5 "/>
<text text-anchor="start" x="21.5" y="-123.3" font-family="Times,serif" font-size="14.00">num_packages</text>
<polyline fill="none" stroke="black" points="161.5,-115.5 161.5,-138.5 "/>
<text text-anchor="end" x="234.5" y="-123.3" font-family="Times,serif" font-size="14.00">63</text>
<polyline fill="none" stroke="black" points="13.5,-115.5 242.5,-115.5 "/>
<text text-anchor="start" x="21.5" y="-100.3" font-family="Times,serif" font-size="14.00">num_packages_tests_passed</text>
<polyline fill="none" stroke="black" points="198.5,-92.5 198.5,-115.5 "/>
<text text-anchor="end" x="234.5" y="-100.3" font-family="Times,serif" font-size="14.00">48</text>
<polyline fill="none" stroke="black" points="13.5,-92.5 242.5,-92.5 "/>
<text text-anchor="start" x="21.5" y="-77.3" font-family="Times,serif" font-size="14.00">num_packages_with_tests</text>
<polyline fill="none" stroke="black" points="192.5,-69.5 192.5,-92.5 "/>
<text text-anchor="end" x="234.5" y="-77.3" font-family="Times,serif" font-size="14.00">48</text>
<polyline fill="none" stroke="black" points="13.5,-69.5 242.5,-69.5 "/>
<text text-anchor="start" x="21.5" y="-54.3" font-family="Times,serif" font-size="14.00">num_packages_with_tests_files</text>
<polyline fill="none" stroke="black" points="206.5,-46.5 206.5,-69.5 "/>
<text text-anchor="end" x="234.5" y="-54.3" font-family="Times,serif" font-size="14.00">48</text>
<polyline fill="none" stroke="black" points="13.5,-46.5 242.5,-46.5 "/>
<text text-anchor="start" x="21.5" y="-31.3" font-family="Times,serif" font-size="14.00">package_coverage_avg</text>
<polyline fill="none" stroke="black" points="178.5,-23.5 178.5,-46.5 "/>
<text text-anchor="end" x="234.5" y="-31.3" font-family="Times,serif" font-size="14.00">5.80</text>
<polyline fill="none" stroke="black" points="13.5,-23.5 242.5,-23.5 "/>
<text text-anchor="start" x="21.5" y="-8.3" font-family="Times,serif" font-size="14.00">package_coverage_min</text>
<polyline fill="none" stroke="black" points="176.5,-0.5 176.5,-23.5 "/>
<text text-anchor="end" x="234.5" y="-8.3" font-family="Times,serif" font-size="14.00">81.48</text>
</g>
<!-- golang.org/x/image&#45;&gt;golang.org/x/text -->
<g id="edge2" class="edge">
<title>golang.org/x/image&#45;&gt;golang.org/x/text</title>
<path fill="none" stroke="black" d="M128,-428.39C128,-419.64 128,-410.85 128,-402.08"/>
<polygon fill="black" stroke="black" points="131.5,-401.8 128,-391.8 124.5,-401.8 131.5,-401.8"/>
</g>
</g>
</svg>
