<?xml version="1.0" encoding="UTF-8" standalone="no"?>
<!DOCTYPE svg PUBLIC "-//W3C//DTD SVG 1.1//EN"
 "http://www.w3.org/Graphics/SVG/1.1/DTD/svg11.dtd">
<!-- Generated by graphviz version 2.47.0 (20210316.0004)
 -->
<!-- Title: G Pages: 1 -->
<svg width="264pt" height="1187pt"
 viewBox="0.00 0.00 264.00 1187.00" xmlns="http://www.w3.org/2000/svg" xmlns:xlink="http://www.w3.org/1999/xlink">
<g id="graph0" class="graph" transform="scale(1 1) rotate(0) translate(4 1183)">
<title>G</title>
<polygon fill="white" stroke="transparent" points="-4,4 -4,-1183 260,-1183 260,4 -4,4"/>
<!-- github.com/nikolaydubina/calendarheatmap -->
<g id="node1" class="node">
<title>github.com/nikolaydubina/calendarheatmap</title>
<polygon fill="none" stroke="black" points="0,-764.5 0,-1178.5 256,-1178.5 256,-764.5 0,-764.5"/>
<text text-anchor="middle" x="128" y="-1163.3" font-family="Times,serif" font-size="14.00">github.com/nikolaydubina/calendarheatmap</text>
<polyline fill="none" stroke="black" points="0,-1155.5 256,-1155.5 "/>
<text text-anchor="start" x="8" y="-1140.3" font-family="Times,serif" font-size="14.00">can_get_codecov</text>
<polyline fill="none" stroke="black" points="164,-1132.5 164,-1155.5 "/>
<text text-anchor="end" x="248" y="-1140.3" font-family="Times,serif" font-size="14.00">true</text>
<polyline fill="none" stroke="black" points="0,-1132.5 256,-1132.5 "/>
<text text-anchor="start" x="8" y="-1117.3" font-family="Times,serif" font-size="14.00">can_get_gitstats</text>
<polyline fill="none" stroke="black" points="161,-1109.5 161,-1132.5 "/>
<text text-anchor="end" x="248" y="-1117.3" font-family="Times,serif" font-size="14.00">true</text>
<polyline fill="none" stroke="black" points="0,-1109.5 256,-1109.5 "/>
<text text-anchor="start" x="8" y="-1094.3" font-family="Times,serif" font-size="14.00">can_run_tests</text>
<polyline fill="none" stroke="black" points="154,-1086.5 154,-1109.5 "/>
<text text-anchor="end" x="248" y="-1094.3" font-family="Times,serif" font-size="14.00">true</text>
<polyline fill="none" stroke="black" points="0,-1086.5 256,-1086.5 "/>
<text text-anchor="start" x="8" y="-1071.3" font-family="Times,serif" font-size="14.00">codecov_coverage</text>
<polyline fill="none" stroke="black" points="163,-1063.5 163,-1086.5 "/>
<text text-anchor="end" x="248" y="-1071.3" font-family="Times,serif" font-size="14.00">80.08</text>
<polyline fill="none" stroke="black" points="0,-1063.5 256,-1063.5 "/>
<text text-anchor="start" x="8" y="-1048.3" font-family="Times,serif" font-size="14.00">codecov_files</text>
<polyline fill="none" stroke="black" points="162,-1040.5 162,-1063.5 "/>
<text text-anchor="end" x="248" y="-1048.3" font-family="Times,serif" font-size="14.00">6</text>
<polyline fill="none" stroke="black" points="0,-1040.5 256,-1040.5 "/>
<text text-anchor="start" x="8" y="-1025.3" font-family="Times,serif" font-size="14.00">codecov_lines</text>
<polyline fill="none" stroke="black" points="156,-1017.5 156,-1040.5 "/>
<text text-anchor="end" x="248" y="-1025.3" font-family="Times,serif" font-size="14.00">236</text>
<polyline fill="none" stroke="black" points="0,-1017.5 256,-1017.5 "/>
<text text-anchor="start" x="8" y="-1002.3" font-family="Times,serif" font-size="14.00">git_last_commit</text>
<polyline fill="none" stroke="black" points="141,-994.5 141,-1017.5 "/>
<text text-anchor="end" x="248" y="-1002.3" font-family="Times,serif" font-size="14.00">2021&#45;04&#45;17</text>
<polyline fill="none" stroke="black" points="0,-994.5 256,-994.5 "/>
<text text-anchor="start" x="8" y="-979.3" font-family="Times,serif" font-size="14.00">git_last_commit_days_since</text>
<polyline fill="none" stroke="black" points="202,-971.5 202,-994.5 "/>
<text text-anchor="end" x="248" y="-979.3" font-family="Times,serif" font-size="14.00">4</text>
<polyline fill="none" stroke="black" points="0,-971.5 256,-971.5 "/>
<text text-anchor="start" x="8" y="-956.3" font-family="Times,serif" font-size="14.00">git_num_contributors</text>
<polyline fill="none" stroke="black" points="183,-948.5 183,-971.5 "/>
<text text-anchor="end" x="248" y="-956.3" font-family="Times,serif" font-size="14.00">2</text>
<polyline fill="none" stroke="black" points="0,-948.5 256,-948.5 "/>
<text text-anchor="start" x="8" y="-933.3" font-family="Times,serif" font-size="14.00">has_test_files</text>
<polyline fill="none" stroke="black" points="153,-925.5 153,-948.5 "/>
<text text-anchor="end" x="248" y="-933.3" font-family="Times,serif" font-size="14.00">true</text>
<polyline fill="none" stroke="black" points="0,-925.5 256,-925.5 "/>
<text text-anchor="start" x="8" y="-910.3" font-family="Times,serif" font-size="14.00">has_tests</text>
<polyline fill="none" stroke="black" points="141,-902.5 141,-925.5 "/>
<text text-anchor="end" x="248" y="-910.3" font-family="Times,serif" font-size="14.00">true</text>
<polyline fill="none" stroke="black" points="0,-902.5 256,-902.5 "/>
<text text-anchor="start" x="8" y="-887.3" font-family="Times,serif" font-size="14.00">num_packages</text>
<polyline fill="none" stroke="black" points="165,-879.5 165,-902.5 "/>
<text text-anchor="end" x="248" y="-887.3" font-family="Times,serif" font-size="14.00">2</text>
<polyline fill="none" stroke="black" points="0,-879.5 256,-879.5 "/>
<text text-anchor="start" x="8" y="-864.3" font-family="Times,serif" font-size="14.00">num_packages_tests_passed</text>
<polyline fill="none" stroke="black" points="202,-856.5 202,-879.5 "/>
<text text-anchor="end" x="248" y="-864.3" font-family="Times,serif" font-size="14.00">1</text>
<polyline fill="none" stroke="black" points="0,-856.5 256,-856.5 "/>
<text text-anchor="start" x="8" y="-841.3" font-family="Times,serif" font-size="14.00">num_packages_with_tests</text>
<polyline fill="none" stroke="black" points="196,-833.5 196,-856.5 "/>
<text text-anchor="end" x="248" y="-841.3" font-family="Times,serif" font-size="14.00">1</text>
<polyline fill="none" stroke="black" points="0,-833.5 256,-833.5 "/>
<text text-anchor="start" x="8" y="-818.3" font-family="Times,serif" font-size="14.00">num_packages_with_tests_files</text>
<polyline fill="none" stroke="black" points="210,-810.5 210,-833.5 "/>
<text text-anchor="end" x="248" y="-818.3" font-family="Times,serif" font-size="14.00">1</text>
<polyline fill="none" stroke="black" points="0,-810.5 256,-810.5 "/>
<text text-anchor="start" x="8" y="-795.3" font-family="Times,serif" font-size="14.00">package_coverage_avg</text>
<polyline fill="none" stroke="black" points="176,-787.5 176,-810.5 "/>
<text text-anchor="end" x="248" y="-795.3" font-family="Times,serif" font-size="14.00">85.30</text>
<polyline fill="none" stroke="black" points="0,-787.5 256,-787.5 "/>
<text text-anchor="start" x="8" y="-772.3" font-family="Times,serif" font-size="14.00">package_coverage_min</text>
<polyline fill="none" stroke="black" points="177,-764.5 177,-787.5 "/>
<text text-anchor="end" x="248" y="-772.3" font-family="Times,serif" font-size="14.00">85.30</text>
</g>
<!-- golang.org/x/image -->
<g id="node2" class="node">
<title>golang.org/x/image</title>
<polygon fill="none" stroke="black" points="19,-382.5 19,-727.5 237,-727.5 237,-382.5 19,-382.5"/>
<text text-anchor="middle" x="128" y="-712.3" font-family="Times,serif" font-size="14.00">golang.org/x/image</text>
<polyline fill="none" stroke="black" points="19,-704.5 237,-704.5 "/>
<text text-anchor="start" x="27" y="-689.3" font-family="Times,serif" font-size="14.00">can_get_codecov</text>
<polyline fill="none" stroke="black" points="162,-681.5 162,-704.5 "/>
<text text-anchor="end" x="229" y="-689.3" font-family="Times,serif" font-size="14.00">false</text>
<polyline fill="none" stroke="black" points="19,-681.5 237,-681.5 "/>
<text text-anchor="start" x="27" y="-666.3" font-family="Times,serif" font-size="14.00">can_get_gitstats</text>
<polyline fill="none" stroke="black" points="161,-658.5 161,-681.5 "/>
<text text-anchor="end" x="229" y="-666.3" font-family="Times,serif" font-size="14.00">true</text>
<polyline fill="none" stroke="black" points="19,-658.5 237,-658.5 "/>
<text text-anchor="start" x="27" y="-643.3" font-family="Times,serif" font-size="14.00">can_run_tests</text>
<polyline fill="none" stroke="black" points="154,-635.5 154,-658.5 "/>
<text text-anchor="end" x="229" y="-643.3" font-family="Times,serif" font-size="14.00">true</text>
<polyline fill="none" stroke="black" points="19,-635.5 237,-635.5 "/>
<text text-anchor="start" x="27" y="-620.3" font-family="Times,serif" font-size="14.00">git_last_commit</text>
<polyline fill="none" stroke="black" points="141,-612.5 141,-635.5 "/>
<text text-anchor="end" x="229" y="-620.3" font-family="Times,serif" font-size="14.00">2021&#45;02&#45;20</text>
<polyline fill="none" stroke="black" points="19,-612.5 237,-612.5 "/>
<text text-anchor="start" x="27" y="-597.3" font-family="Times,serif" font-size="14.00">git_last_commit_days_since</text>
<polyline fill="none" stroke="black" points="199,-589.5 199,-612.5 "/>
<text text-anchor="end" x="229" y="-597.3" font-family="Times,serif" font-size="14.00">60</text>
<polyline fill="none" stroke="black" points="19,-589.5 237,-589.5 "/>
<text text-anchor="start" x="27" y="-574.3" font-family="Times,serif" font-size="14.00">git_num_contributors</text>
<polyline fill="none" stroke="black" points="180,-566.5 180,-589.5 "/>
<text text-anchor="end" x="229" y="-574.3" font-family="Times,serif" font-size="14.00">44</text>
<polyline fill="none" stroke="black" points="19,-566.5 237,-566.5 "/>
<text text-anchor="start" x="27" y="-551.3" font-family="Times,serif" font-size="14.00">has_test_files</text>
<polyline fill="none" stroke="black" points="153,-543.5 153,-566.5 "/>
<text text-anchor="end" x="229" y="-551.3" font-family="Times,serif" font-size="14.00">true</text>
<polyline fill="none" stroke="black" points="19,-543.5 237,-543.5 "/>
<text text-anchor="start" x="27" y="-528.3" font-family="Times,serif" font-size="14.00">has_tests</text>
<polyline fill="none" stroke="black" points="141,-520.5 141,-543.5 "/>
<text text-anchor="end" x="229" y="-528.3" font-family="Times,serif" font-size="14.00">true</text>
<polyline fill="none" stroke="black" points="19,-520.5 237,-520.5 "/>
<text text-anchor="start" x="27" y="-505.3" font-family="Times,serif" font-size="14.00">num_packages</text>
<polyline fill="none" stroke="black" points="162,-497.5 162,-520.5 "/>
<text text-anchor="end" x="229" y="-505.3" font-family="Times,serif" font-size="14.00">32</text>
<polyline fill="none" stroke="black" points="19,-497.5 237,-497.5 "/>
<text text-anchor="start" x="27" y="-482.3" font-family="Times,serif" font-size="14.00">num_packages_tests_passed</text>
<polyline fill="none" stroke="black" points="198,-474.5 198,-497.5 "/>
<text text-anchor="end" x="229" y="-482.3" font-family="Times,serif" font-size="14.00">14</text>
<polyline fill="none" stroke="black" points="19,-474.5 237,-474.5 "/>
<text text-anchor="start" x="27" y="-459.3" font-family="Times,serif" font-size="14.00">num_packages_with_tests</text>
<polyline fill="none" stroke="black" points="192,-451.5 192,-474.5 "/>
<text text-anchor="end" x="229" y="-459.3" font-family="Times,serif" font-size="14.00">14</text>
<polyline fill="none" stroke="black" points="19,-451.5 237,-451.5 "/>
<text text-anchor="start" x="27" y="-436.3" font-family="Times,serif" font-size="14.00">num_packages_with_tests_files</text>
<polyline fill="none" stroke="black" points="207,-428.5 207,-451.5 "/>
<text text-anchor="end" x="229" y="-436.3" font-family="Times,serif" font-size="14.00">14</text>
<polyline fill="none" stroke="black" points="19,-428.5 237,-428.5 "/>
<text text-anchor="start" x="27" y="-413.3" font-family="Times,serif" font-size="14.00">package_coverage_avg</text>
<polyline fill="none" stroke="black" points="179,-405.5 179,-428.5 "/>
<text text-anchor="end" x="229" y="-413.3" font-family="Times,serif" font-size="14.00">5.60</text>
<polyline fill="none" stroke="black" points="19,-405.5 237,-405.5 "/>
<text text-anchor="start" x="27" y="-390.3" font-family="Times,serif" font-size="14.00">package_coverage_min</text>
<polyline fill="none" stroke="black" points="177,-382.5 177,-405.5 "/>
<text text-anchor="end" x="229" y="-390.3" font-family="Times,serif" font-size="14.00">54.00</text>
</g>
<!-- github.com/nikolaydubina/calendarheatmap&#45;&gt;golang.org/x/image -->
<g id="edge1" class="edge">
<title>github.com/nikolaydubina/calendarheatmap&#45;&gt;golang.org/x/image</title>
<path fill="none" stroke="black" d="M128,-764.46C128,-755.63 128,-746.79 128,-738.01"/>
<polygon fill="black" stroke="black" points="131.5,-737.74 128,-727.74 124.5,-737.74 131.5,-737.74"/>
</g>
<!-- golang.org/x/text -->
<g id="node3" class="node">
<title>golang.org/x/text</title>
<polygon fill="none" stroke="black" points="19,-0.5 19,-345.5 237,-345.5 237,-0.5 19,-0.5"/>
<text text-anchor="middle" x="128" y="-330.3" font-family="Times,serif" font-size="14.00">golang.org/x/text</text>
<polyline fill="none" stroke="black" points="19,-322.5 237,-322.5 "/>
<text text-anchor="start" x="27" y="-307.3" font-family="Times,serif" font-size="14.00">can_get_codecov</text>
<polyline fill="none" stroke="black" points="162,-299.5 162,-322.5 "/>
<text text-anchor="end" x="229" y="-307.3" font-family="Times,serif" font-size="14.00">false</text>
<polyline fill="none" stroke="black" points="19,-299.5 237,-299.5 "/>
<text text-anchor="start" x="27" y="-284.3" font-family="Times,serif" font-size="14.00">can_get_gitstats</text>
<polyline fill="none" stroke="black" points="161,-276.5 161,-299.5 "/>
<text text-anchor="end" x="229" y="-284.3" font-family="Times,serif" font-size="14.00">true</text>
<polyline fill="none" stroke="black" points="19,-276.5 237,-276.5 "/>
<text text-anchor="start" x="27" y="-261.3" font-family="Times,serif" font-size="14.00">can_run_tests</text>
<polyline fill="none" stroke="black" points="154,-253.5 154,-276.5 "/>
<text text-anchor="end" x="229" y="-261.3" font-family="Times,serif" font-size="14.00">true</text>
<polyline fill="none" stroke="black" points="19,-253.5 237,-253.5 "/>
<text text-anchor="start" x="27" y="-238.3" font-family="Times,serif" font-size="14.00">git_last_commit</text>
<polyline fill="none" stroke="black" points="141,-230.5 141,-253.5 "/>
<text text-anchor="end" x="229" y="-238.3" font-family="Times,serif" font-size="14.00">2021&#45;04&#45;11</text>
<polyline fill="none" stroke="black" points="19,-230.5 237,-230.5 "/>
<text text-anchor="start" x="27" y="-215.3" font-family="Times,serif" font-size="14.00">git_last_commit_days_since</text>
<polyline fill="none" stroke="black" points="199,-207.5 199,-230.5 "/>
<text text-anchor="end" x="229" y="-215.3" font-family="Times,serif" font-size="14.00">10</text>
<polyline fill="none" stroke="black" points="19,-207.5 237,-207.5 "/>
<text text-anchor="start" x="27" y="-192.3" font-family="Times,serif" font-size="14.00">git_num_contributors</text>
<polyline fill="none" stroke="black" points="180,-184.5 180,-207.5 "/>
<text text-anchor="end" x="229" y="-192.3" font-family="Times,serif" font-size="14.00">56</text>
<polyline fill="none" stroke="black" points="19,-184.5 237,-184.5 "/>
<text text-anchor="start" x="27" y="-169.3" font-family="Times,serif" font-size="14.00">has_test_files</text>
<polyline fill="none" stroke="black" points="153,-161.5 153,-184.5 "/>
<text text-anchor="end" x="229" y="-169.3" font-family="Times,serif" font-size="14.00">true</text>
<polyline fill="none" stroke="black" points="19,-161.5 237,-161.5 "/>
<text text-anchor="start" x="27" y="-146.3" font-family="Times,serif" font-size="14.00">has_tests</text>
<polyline fill="none" stroke="black" points="141,-138.5 141,-161.5 "/>
<text text-anchor="end" x="229" y="-146.3" font-family="Times,serif" font-size="14.00">true</text>
<polyline fill="none" stroke="black" points="19,-138.5 237,-138.5 "/>
<text text-anchor="start" x="27" y="-123.3" font-family="Times,serif" font-size="14.00">num_packages</text>
<polyline fill="none" stroke="black" points="162,-115.5 162,-138.5 "/>
<text text-anchor="end" x="229" y="-123.3" font-family="Times,serif" font-size="14.00">63</text>
<polyline fill="none" stroke="black" points="19,-115.5 237,-115.5 "/>
<text text-anchor="start" x="27" y="-100.3" font-family="Times,serif" font-size="14.00">num_packages_tests_passed</text>
<polyline fill="none" stroke="black" points="198,-92.5 198,-115.5 "/>
<text text-anchor="end" x="229" y="-100.3" font-family="Times,serif" font-size="14.00">48</text>
<polyline fill="none" stroke="black" points="19,-92.5 237,-92.5 "/>
<text text-anchor="start" x="27" y="-77.3" font-family="Times,serif" font-size="14.00">num_packages_with_tests</text>
<polyline fill="none" stroke="black" points="192,-69.5 192,-92.5 "/>
<text text-anchor="end" x="229" y="-77.3" font-family="Times,serif" font-size="14.00">48</text>
<polyline fill="none" stroke="black" points="19,-69.5 237,-69.5 "/>
<text text-anchor="start" x="27" y="-54.3" font-family="Times,serif" font-size="14.00">num_packages_with_tests_files</text>
<polyline fill="none" stroke="black" points="207,-46.5 207,-69.5 "/>
<text text-anchor="end" x="229" y="-54.3" font-family="Times,serif" font-size="14.00">48</text>
<polyline fill="none" stroke="black" points="19,-46.5 237,-46.5 "/>
<text text-anchor="start" x="27" y="-31.3" font-family="Times,serif" font-size="14.00">package_coverage_avg</text>
<polyline fill="none" stroke="black" points="179,-23.5 179,-46.5 "/>
<text text-anchor="end" x="229" y="-31.3" font-family="Times,serif" font-size="14.00">5.80</text>
<polyline fill="none" stroke="black" points="19,-23.5 237,-23.5 "/>
<text text-anchor="start" x="27" y="-8.3" font-family="Times,serif" font-size="14.00">package_coverage_min</text>
<polyline fill="none" stroke="black" points="177,-0.5 177,-23.5 "/>
<text text-anchor="end" x="229" y="-8.3" font-family="Times,serif" font-size="14.00">81.48</text>
</g>
<!-- golang.org/x/image&#45;&gt;golang.org/x/text -->
<g id="edge2" class="edge">
<title>golang.org/x/image&#45;&gt;golang.org/x/text</title>
<path fill="none" stroke="black" d="M128,-382.34C128,-373.48 128,-364.57 128,-355.68"/>
<polygon fill="black" stroke="black" points="131.5,-355.66 128,-345.66 124.5,-355.66 131.5,-355.66"/>
</g>
</g>
</svg>
