<?xml version="1.0" encoding="UTF-8" standalone="no"?>
<!DOCTYPE svg PUBLIC "-//W3C//DTD SVG 1.1//EN"
 "http://www.w3.org/Graphics/SVG/1.1/DTD/svg11.dtd">
<!-- Generated by graphviz version 2.47.0 (20210316.0004)
 -->
<!-- Title: G Pages: 1 -->
<svg width="268pt" height="1187pt"
 viewBox="0.00 0.00 268.00 1187.00" xmlns="http://www.w3.org/2000/svg" xmlns:xlink="http://www.w3.org/1999/xlink">
<g id="graph0" class="graph" transform="scale(1 1) rotate(0) translate(4 1183)">
<title>G</title>
<polygon fill="white" stroke="transparent" points="-4,4 -4,-1183 264,-1183 264,4 -4,4"/>
<!-- github.com/nikolaydubina/calendarheatmap -->
<g id="node1" class="node">
<title>github.com/nikolaydubina/calendarheatmap</title>
<polygon fill="none" stroke="black" points="0,-810.5 0,-1178.5 260,-1178.5 260,-810.5 0,-810.5"/>
<text text-anchor="middle" x="130" y="-1163.3" font-family="Times,serif" font-size="14.00">github.com/nikolaydubina/calendarheatmap</text>
<polyline fill="none" stroke="black" points="0,-1155.5 260,-1155.5 "/>
<text text-anchor="start" x="8" y="-1140.3" font-family="Times,serif" font-size="14.00">can_get_gitstats</text>
<polyline fill="none" stroke="black" points="163,-1132.5 163,-1155.5 "/>
<text text-anchor="end" x="252" y="-1140.3" font-family="Times,serif" font-size="14.00">true</text>
<polyline fill="none" stroke="black" points="0,-1132.5 260,-1132.5 "/>
<text text-anchor="start" x="8" y="-1117.3" font-family="Times,serif" font-size="14.00">can_run_tests</text>
<polyline fill="none" stroke="black" points="156,-1109.5 156,-1132.5 "/>
<text text-anchor="end" x="252" y="-1117.3" font-family="Times,serif" font-size="14.00">true</text>
<polyline fill="none" stroke="black" points="0,-1109.5 260,-1109.5 "/>
<text text-anchor="start" x="8" y="-1094.3" font-family="Times,serif" font-size="14.00">has_test_files</text>
<polyline fill="none" stroke="black" points="155,-1086.5 155,-1109.5 "/>
<text text-anchor="end" x="252" y="-1094.3" font-family="Times,serif" font-size="14.00">true</text>
<polyline fill="none" stroke="black" points="0,-1086.5 260,-1086.5 "/>
<text text-anchor="start" x="8" y="-1071.3" font-family="Times,serif" font-size="14.00">has_tests</text>
<polyline fill="none" stroke="black" points="143,-1063.5 143,-1086.5 "/>
<text text-anchor="end" x="252" y="-1071.3" font-family="Times,serif" font-size="14.00">true</text>
<polyline fill="none" stroke="black" points="0,-1063.5 260,-1063.5 "/>
<text text-anchor="start" x="8" y="-1048.3" font-family="Times,serif" font-size="14.00">last_commit</text>
<polyline fill="none" stroke="black" points="85,-1040.5 85,-1063.5 "/>
<text text-anchor="end" x="252" y="-1048.3" font-family="Times,serif" font-size="14.00">2021&#45;04&#45;17T00:45:58+08:00</text>
<polyline fill="none" stroke="black" points="0,-1040.5 260,-1040.5 "/>
<text text-anchor="start" x="8" y="-1025.3" font-family="Times,serif" font-size="14.00">last_commit_days_since</text>
<polyline fill="none" stroke="black" points="185,-1017.5 185,-1040.5 "/>
<text text-anchor="end" x="252" y="-1025.3" font-family="Times,serif" font-size="14.00">2.88</text>
<polyline fill="none" stroke="black" points="0,-1017.5 260,-1017.5 "/>
<text text-anchor="start" x="8" y="-1002.3" font-family="Times,serif" font-size="14.00">last_commit_months_since</text>
<polyline fill="none" stroke="black" points="193,-994.5 193,-1017.5 "/>
<text text-anchor="end" x="252" y="-1002.3" font-family="Times,serif" font-size="14.00">0.10</text>
<polyline fill="none" stroke="black" points="0,-994.5 260,-994.5 "/>
<text text-anchor="start" x="8" y="-979.3" font-family="Times,serif" font-size="14.00">last_commit_years_since</text>
<polyline fill="none" stroke="black" points="187,-971.5 187,-994.5 "/>
<text text-anchor="end" x="252" y="-979.3" font-family="Times,serif" font-size="14.00">0.01</text>
<polyline fill="none" stroke="black" points="0,-971.5 260,-971.5 "/>
<text text-anchor="start" x="8" y="-956.3" font-family="Times,serif" font-size="14.00">num_contributors</text>
<polyline fill="none" stroke="black" points="175,-948.5 175,-971.5 "/>
<text text-anchor="end" x="252" y="-956.3" font-family="Times,serif" font-size="14.00">2</text>
<polyline fill="none" stroke="black" points="0,-948.5 260,-948.5 "/>
<text text-anchor="start" x="8" y="-933.3" font-family="Times,serif" font-size="14.00">num_packages</text>
<polyline fill="none" stroke="black" points="167,-925.5 167,-948.5 "/>
<text text-anchor="end" x="252" y="-933.3" font-family="Times,serif" font-size="14.00">2</text>
<polyline fill="none" stroke="black" points="0,-925.5 260,-925.5 "/>
<text text-anchor="start" x="8" y="-910.3" font-family="Times,serif" font-size="14.00">num_packages_tests_passed</text>
<polyline fill="none" stroke="black" points="204,-902.5 204,-925.5 "/>
<text text-anchor="end" x="252" y="-910.3" font-family="Times,serif" font-size="14.00">1</text>
<polyline fill="none" stroke="black" points="0,-902.5 260,-902.5 "/>
<text text-anchor="start" x="8" y="-887.3" font-family="Times,serif" font-size="14.00">num_packages_with_tests</text>
<polyline fill="none" stroke="black" points="198,-879.5 198,-902.5 "/>
<text text-anchor="end" x="252" y="-887.3" font-family="Times,serif" font-size="14.00">1</text>
<polyline fill="none" stroke="black" points="0,-879.5 260,-879.5 "/>
<text text-anchor="start" x="8" y="-864.3" font-family="Times,serif" font-size="14.00">num_packages_with_tests_files</text>
<polyline fill="none" stroke="black" points="212,-856.5 212,-879.5 "/>
<text text-anchor="end" x="252" y="-864.3" font-family="Times,serif" font-size="14.00">1</text>
<polyline fill="none" stroke="black" points="0,-856.5 260,-856.5 "/>
<text text-anchor="start" x="8" y="-841.3" font-family="Times,serif" font-size="14.00">package_coverage_avg</text>
<polyline fill="none" stroke="black" points="178,-833.5 178,-856.5 "/>
<text text-anchor="end" x="252" y="-841.3" font-family="Times,serif" font-size="14.00">85.30</text>
<polyline fill="none" stroke="black" points="0,-833.5 260,-833.5 "/>
<text text-anchor="start" x="8" y="-818.3" font-family="Times,serif" font-size="14.00">package_coverage_min</text>
<polyline fill="none" stroke="black" points="179,-810.5 179,-833.5 "/>
<text text-anchor="end" x="252" y="-818.3" font-family="Times,serif" font-size="14.00">85.30</text>
</g>
<!-- golang.org/x/image -->
<g id="node2" class="node">
<title>golang.org/x/image</title>
<polygon fill="none" stroke="black" points="0,-405.5 0,-773.5 260,-773.5 260,-405.5 0,-405.5"/>
<text text-anchor="middle" x="130" y="-758.3" font-family="Times,serif" font-size="14.00">golang.org/x/image</text>
<polyline fill="none" stroke="black" points="0,-750.5 260,-750.5 "/>
<text text-anchor="start" x="8" y="-735.3" font-family="Times,serif" font-size="14.00">can_get_gitstats</text>
<polyline fill="none" stroke="black" points="163,-727.5 163,-750.5 "/>
<text text-anchor="end" x="252" y="-735.3" font-family="Times,serif" font-size="14.00">true</text>
<polyline fill="none" stroke="black" points="0,-727.5 260,-727.5 "/>
<text text-anchor="start" x="8" y="-712.3" font-family="Times,serif" font-size="14.00">can_run_tests</text>
<polyline fill="none" stroke="black" points="156,-704.5 156,-727.5 "/>
<text text-anchor="end" x="252" y="-712.3" font-family="Times,serif" font-size="14.00">true</text>
<polyline fill="none" stroke="black" points="0,-704.5 260,-704.5 "/>
<text text-anchor="start" x="8" y="-689.3" font-family="Times,serif" font-size="14.00">has_test_files</text>
<polyline fill="none" stroke="black" points="155,-681.5 155,-704.5 "/>
<text text-anchor="end" x="252" y="-689.3" font-family="Times,serif" font-size="14.00">true</text>
<polyline fill="none" stroke="black" points="0,-681.5 260,-681.5 "/>
<text text-anchor="start" x="8" y="-666.3" font-family="Times,serif" font-size="14.00">has_tests</text>
<polyline fill="none" stroke="black" points="143,-658.5 143,-681.5 "/>
<text text-anchor="end" x="252" y="-666.3" font-family="Times,serif" font-size="14.00">true</text>
<polyline fill="none" stroke="black" points="0,-658.5 260,-658.5 "/>
<text text-anchor="start" x="8" y="-643.3" font-family="Times,serif" font-size="14.00">last_commit</text>
<polyline fill="none" stroke="black" points="85,-635.5 85,-658.5 "/>
<text text-anchor="end" x="252" y="-643.3" font-family="Times,serif" font-size="14.00">2021&#45;02&#45;20T07:54:48+08:00</text>
<polyline fill="none" stroke="black" points="0,-635.5 260,-635.5 "/>
<text text-anchor="start" x="8" y="-620.3" font-family="Times,serif" font-size="14.00">last_commit_days_since</text>
<polyline fill="none" stroke="black" points="182,-612.5 182,-635.5 "/>
<text text-anchor="end" x="252" y="-620.3" font-family="Times,serif" font-size="14.00">58.58</text>
<polyline fill="none" stroke="black" points="0,-612.5 260,-612.5 "/>
<text text-anchor="start" x="8" y="-597.3" font-family="Times,serif" font-size="14.00">last_commit_months_since</text>
<polyline fill="none" stroke="black" points="193,-589.5 193,-612.5 "/>
<text text-anchor="end" x="252" y="-597.3" font-family="Times,serif" font-size="14.00">2.09</text>
<polyline fill="none" stroke="black" points="0,-589.5 260,-589.5 "/>
<text text-anchor="start" x="8" y="-574.3" font-family="Times,serif" font-size="14.00">last_commit_years_since</text>
<polyline fill="none" stroke="black" points="187,-566.5 187,-589.5 "/>
<text text-anchor="end" x="252" y="-574.3" font-family="Times,serif" font-size="14.00">0.17</text>
<polyline fill="none" stroke="black" points="0,-566.5 260,-566.5 "/>
<text text-anchor="start" x="8" y="-551.3" font-family="Times,serif" font-size="14.00">num_contributors</text>
<polyline fill="none" stroke="black" points="171,-543.5 171,-566.5 "/>
<text text-anchor="end" x="252" y="-551.3" font-family="Times,serif" font-size="14.00">44</text>
<polyline fill="none" stroke="black" points="0,-543.5 260,-543.5 "/>
<text text-anchor="start" x="8" y="-528.3" font-family="Times,serif" font-size="14.00">num_packages</text>
<polyline fill="none" stroke="black" points="164,-520.5 164,-543.5 "/>
<text text-anchor="end" x="252" y="-528.3" font-family="Times,serif" font-size="14.00">32</text>
<polyline fill="none" stroke="black" points="0,-520.5 260,-520.5 "/>
<text text-anchor="start" x="8" y="-505.3" font-family="Times,serif" font-size="14.00">num_packages_tests_passed</text>
<polyline fill="none" stroke="black" points="200,-497.5 200,-520.5 "/>
<text text-anchor="end" x="252" y="-505.3" font-family="Times,serif" font-size="14.00">14</text>
<polyline fill="none" stroke="black" points="0,-497.5 260,-497.5 "/>
<text text-anchor="start" x="8" y="-482.3" font-family="Times,serif" font-size="14.00">num_packages_with_tests</text>
<polyline fill="none" stroke="black" points="194,-474.5 194,-497.5 "/>
<text text-anchor="end" x="252" y="-482.3" font-family="Times,serif" font-size="14.00">14</text>
<polyline fill="none" stroke="black" points="0,-474.5 260,-474.5 "/>
<text text-anchor="start" x="8" y="-459.3" font-family="Times,serif" font-size="14.00">num_packages_with_tests_files</text>
<polyline fill="none" stroke="black" points="209,-451.5 209,-474.5 "/>
<text text-anchor="end" x="252" y="-459.3" font-family="Times,serif" font-size="14.00">14</text>
<polyline fill="none" stroke="black" points="0,-451.5 260,-451.5 "/>
<text text-anchor="start" x="8" y="-436.3" font-family="Times,serif" font-size="14.00">package_coverage_avg</text>
<polyline fill="none" stroke="black" points="181,-428.5 181,-451.5 "/>
<text text-anchor="end" x="252" y="-436.3" font-family="Times,serif" font-size="14.00">5.60</text>
<polyline fill="none" stroke="black" points="0,-428.5 260,-428.5 "/>
<text text-anchor="start" x="8" y="-413.3" font-family="Times,serif" font-size="14.00">package_coverage_min</text>
<polyline fill="none" stroke="black" points="187,-405.5 187,-428.5 "/>
<text text-anchor="end" x="252" y="-413.3" font-family="Times,serif" font-size="14.00">54</text>
</g>
<!-- github.com/nikolaydubina/calendarheatmap&#45;&gt;golang.org/x/image -->
<g id="edge1" class="edge">
<title>github.com/nikolaydubina/calendarheatmap&#45;&gt;golang.org/x/image</title>
<path fill="none" stroke="black" d="M130,-810.28C130,-801.54 130,-792.75 130,-783.98"/>
<polygon fill="black" stroke="black" points="133.5,-783.7 130,-773.7 126.5,-783.7 133.5,-783.7"/>
</g>
<!-- golang.org/x/text -->
<g id="node3" class="node">
<title>golang.org/x/text</title>
<polygon fill="none" stroke="black" points="0,-0.5 0,-368.5 260,-368.5 260,-0.5 0,-0.5"/>
<text text-anchor="middle" x="130" y="-353.3" font-family="Times,serif" font-size="14.00">golang.org/x/text</text>
<polyline fill="none" stroke="black" points="0,-345.5 260,-345.5 "/>
<text text-anchor="start" x="8" y="-330.3" font-family="Times,serif" font-size="14.00">can_get_gitstats</text>
<polyline fill="none" stroke="black" points="163,-322.5 163,-345.5 "/>
<text text-anchor="end" x="252" y="-330.3" font-family="Times,serif" font-size="14.00">true</text>
<polyline fill="none" stroke="black" points="0,-322.5 260,-322.5 "/>
<text text-anchor="start" x="8" y="-307.3" font-family="Times,serif" font-size="14.00">can_run_tests</text>
<polyline fill="none" stroke="black" points="156,-299.5 156,-322.5 "/>
<text text-anchor="end" x="252" y="-307.3" font-family="Times,serif" font-size="14.00">true</text>
<polyline fill="none" stroke="black" points="0,-299.5 260,-299.5 "/>
<text text-anchor="start" x="8" y="-284.3" font-family="Times,serif" font-size="14.00">has_test_files</text>
<polyline fill="none" stroke="black" points="155,-276.5 155,-299.5 "/>
<text text-anchor="end" x="252" y="-284.3" font-family="Times,serif" font-size="14.00">true</text>
<polyline fill="none" stroke="black" points="0,-276.5 260,-276.5 "/>
<text text-anchor="start" x="8" y="-261.3" font-family="Times,serif" font-size="14.00">has_tests</text>
<polyline fill="none" stroke="black" points="143,-253.5 143,-276.5 "/>
<text text-anchor="end" x="252" y="-261.3" font-family="Times,serif" font-size="14.00">true</text>
<polyline fill="none" stroke="black" points="0,-253.5 260,-253.5 "/>
<text text-anchor="start" x="8" y="-238.3" font-family="Times,serif" font-size="14.00">last_commit</text>
<polyline fill="none" stroke="black" points="85,-230.5 85,-253.5 "/>
<text text-anchor="end" x="252" y="-238.3" font-family="Times,serif" font-size="14.00">2021&#45;04&#45;11T08:32:09+08:00</text>
<polyline fill="none" stroke="black" points="0,-230.5 260,-230.5 "/>
<text text-anchor="start" x="8" y="-215.3" font-family="Times,serif" font-size="14.00">last_commit_days_since</text>
<polyline fill="none" stroke="black" points="185,-207.5 185,-230.5 "/>
<text text-anchor="end" x="252" y="-215.3" font-family="Times,serif" font-size="14.00">8.55</text>
<polyline fill="none" stroke="black" points="0,-207.5 260,-207.5 "/>
<text text-anchor="start" x="8" y="-192.3" font-family="Times,serif" font-size="14.00">last_commit_months_since</text>
<polyline fill="none" stroke="black" points="193,-184.5 193,-207.5 "/>
<text text-anchor="end" x="252" y="-192.3" font-family="Times,serif" font-size="14.00">0.31</text>
<polyline fill="none" stroke="black" points="0,-184.5 260,-184.5 "/>
<text text-anchor="start" x="8" y="-169.3" font-family="Times,serif" font-size="14.00">last_commit_years_since</text>
<polyline fill="none" stroke="black" points="187,-161.5 187,-184.5 "/>
<text text-anchor="end" x="252" y="-169.3" font-family="Times,serif" font-size="14.00">0.03</text>
<polyline fill="none" stroke="black" points="0,-161.5 260,-161.5 "/>
<text text-anchor="start" x="8" y="-146.3" font-family="Times,serif" font-size="14.00">num_contributors</text>
<polyline fill="none" stroke="black" points="171,-138.5 171,-161.5 "/>
<text text-anchor="end" x="252" y="-146.3" font-family="Times,serif" font-size="14.00">56</text>
<polyline fill="none" stroke="black" points="0,-138.5 260,-138.5 "/>
<text text-anchor="start" x="8" y="-123.3" font-family="Times,serif" font-size="14.00">num_packages</text>
<polyline fill="none" stroke="black" points="164,-115.5 164,-138.5 "/>
<text text-anchor="end" x="252" y="-123.3" font-family="Times,serif" font-size="14.00">63</text>
<polyline fill="none" stroke="black" points="0,-115.5 260,-115.5 "/>
<text text-anchor="start" x="8" y="-100.3" font-family="Times,serif" font-size="14.00">num_packages_tests_passed</text>
<polyline fill="none" stroke="black" points="200,-92.5 200,-115.5 "/>
<text text-anchor="end" x="252" y="-100.3" font-family="Times,serif" font-size="14.00">48</text>
<polyline fill="none" stroke="black" points="0,-92.5 260,-92.5 "/>
<text text-anchor="start" x="8" y="-77.3" font-family="Times,serif" font-size="14.00">num_packages_with_tests</text>
<polyline fill="none" stroke="black" points="194,-69.5 194,-92.5 "/>
<text text-anchor="end" x="252" y="-77.3" font-family="Times,serif" font-size="14.00">48</text>
<polyline fill="none" stroke="black" points="0,-69.5 260,-69.5 "/>
<text text-anchor="start" x="8" y="-54.3" font-family="Times,serif" font-size="14.00">num_packages_with_tests_files</text>
<polyline fill="none" stroke="black" points="209,-46.5 209,-69.5 "/>
<text text-anchor="end" x="252" y="-54.3" font-family="Times,serif" font-size="14.00">48</text>
<polyline fill="none" stroke="black" points="0,-46.5 260,-46.5 "/>
<text text-anchor="start" x="8" y="-31.3" font-family="Times,serif" font-size="14.00">package_coverage_avg</text>
<polyline fill="none" stroke="black" points="181,-23.5 181,-46.5 "/>
<text text-anchor="end" x="252" y="-31.3" font-family="Times,serif" font-size="14.00">5.80</text>
<polyline fill="none" stroke="black" points="0,-23.5 260,-23.5 "/>
<text text-anchor="start" x="8" y="-8.3" font-family="Times,serif" font-size="14.00">package_coverage_min</text>
<polyline fill="none" stroke="black" points="179,-0.5 179,-23.5 "/>
<text text-anchor="end" x="252" y="-8.3" font-family="Times,serif" font-size="14.00">81.48</text>
</g>
<!-- golang.org/x/image&#45;&gt;golang.org/x/text -->
<g id="edge2" class="edge">
<title>golang.org/x/image&#45;&gt;golang.org/x/text</title>
<path fill="none" stroke="black" d="M130,-405.28C130,-396.54 130,-387.75 130,-378.98"/>
<polygon fill="black" stroke="black" points="133.5,-378.7 130,-368.7 126.5,-378.7 133.5,-378.7"/>
</g>
</g>
</svg>
