<?xml version="1.0" encoding="UTF-8" standalone="no"?>
<!DOCTYPE svg PUBLIC "-//W3C//DTD SVG 1.1//EN"
 "http://www.w3.org/Graphics/SVG/1.1/DTD/svg11.dtd">
<!-- Generated by graphviz version 2.47.0 (20210316.0004)
 -->
<!-- Title: G Pages: 1 -->
<svg width="421pt" height="1348pt"
 viewBox="0.00 0.00 421.00 1348.00" xmlns="http://www.w3.org/2000/svg" xmlns:xlink="http://www.w3.org/1999/xlink">
<g id="graph0" class="graph" transform="scale(1 1) rotate(0) translate(4 1344)">
<title>G</title>
<polygon fill="white" stroke="transparent" points="-4,4 -4,-1344 417,-1344 417,4 -4,4"/>
<!-- github.com/nikolaydubina/calendarheatmap -->
<g id="node1" class="node">
<title>github.com/nikolaydubina/calendarheatmap</title>
<polygon fill="none" stroke="black" points="0,-856.5 0,-1339.5 413,-1339.5 413,-856.5 0,-856.5"/>
<text text-anchor="middle" x="206.5" y="-1324.3" font-family="Times,serif" font-size="14.00">github.com/nikolaydubina/calendarheatmap</text>
<polyline fill="none" stroke="black" points="0,-1316.5 413,-1316.5 "/>
<text text-anchor="start" x="8" y="-1301.3" font-family="Times,serif" font-size="14.00">can_get_codecov</text>
<polyline fill="none" stroke="black" points="242,-1293.5 242,-1316.5 "/>
<text text-anchor="end" x="405" y="-1301.3" font-family="Times,serif" font-size="14.00">true</text>
<polyline fill="none" stroke="black" points="0,-1293.5 413,-1293.5 "/>
<text text-anchor="start" x="8" y="-1278.3" font-family="Times,serif" font-size="14.00">can_get_gitstats</text>
<polyline fill="none" stroke="black" points="239,-1270.5 239,-1293.5 "/>
<text text-anchor="end" x="405" y="-1278.3" font-family="Times,serif" font-size="14.00">true</text>
<polyline fill="none" stroke="black" points="0,-1270.5 413,-1270.5 "/>
<text text-anchor="start" x="8" y="-1255.3" font-family="Times,serif" font-size="14.00">can_run_tests</text>
<polyline fill="none" stroke="black" points="233,-1247.5 233,-1270.5 "/>
<text text-anchor="end" x="405" y="-1255.3" font-family="Times,serif" font-size="14.00">true</text>
<polyline fill="none" stroke="black" points="0,-1247.5 413,-1247.5 "/>
<text text-anchor="start" x="8" y="-1232.3" font-family="Times,serif" font-size="14.00">codecov_coverage</text>
<polyline fill="none" stroke="black" points="241,-1224.5 241,-1247.5 "/>
<text text-anchor="end" x="405" y="-1232.3" font-family="Times,serif" font-size="14.00">80.08</text>
<polyline fill="none" stroke="black" points="0,-1224.5 413,-1224.5 "/>
<text text-anchor="start" x="8" y="-1209.3" font-family="Times,serif" font-size="14.00">codecov_files</text>
<polyline fill="none" stroke="black" points="240,-1201.5 240,-1224.5 "/>
<text text-anchor="end" x="405" y="-1209.3" font-family="Times,serif" font-size="14.00">6</text>
<polyline fill="none" stroke="black" points="0,-1201.5 413,-1201.5 "/>
<text text-anchor="start" x="8" y="-1186.3" font-family="Times,serif" font-size="14.00">codecov_lines</text>
<polyline fill="none" stroke="black" points="235,-1178.5 235,-1201.5 "/>
<text text-anchor="end" x="405" y="-1186.3" font-family="Times,serif" font-size="14.00">236</text>
<polyline fill="none" stroke="black" points="0,-1178.5 413,-1178.5 "/>
<text text-anchor="start" x="8" y="-1163.3" font-family="Times,serif" font-size="14.00">codecov_url</text>
<polyline fill="none" stroke="black" points="83,-1155.5 83,-1178.5 "/>
<text text-anchor="end" x="405" y="-1163.3" font-family="Times,serif" font-size="14.00">https://app.codecov.io/gh/nikolaydubina/calendarheatmap</text>
<polyline fill="none" stroke="black" points="0,-1155.5 413,-1155.5 "/>
<text text-anchor="start" x="8" y="-1140.3" font-family="Times,serif" font-size="14.00">has_test_files</text>
<polyline fill="none" stroke="black" points="232,-1132.5 232,-1155.5 "/>
<text text-anchor="end" x="405" y="-1140.3" font-family="Times,serif" font-size="14.00">true</text>
<polyline fill="none" stroke="black" points="0,-1132.5 413,-1132.5 "/>
<text text-anchor="start" x="8" y="-1117.3" font-family="Times,serif" font-size="14.00">has_tests</text>
<polyline fill="none" stroke="black" points="220,-1109.5 220,-1132.5 "/>
<text text-anchor="end" x="405" y="-1117.3" font-family="Times,serif" font-size="14.00">true</text>
<polyline fill="none" stroke="black" points="0,-1109.5 413,-1109.5 "/>
<text text-anchor="start" x="8" y="-1094.3" font-family="Times,serif" font-size="14.00">last_commit</text>
<polyline fill="none" stroke="black" points="161,-1086.5 161,-1109.5 "/>
<text text-anchor="end" x="405" y="-1094.3" font-family="Times,serif" font-size="14.00">2021&#45;04&#45;17T00:45:58+08:00</text>
<polyline fill="none" stroke="black" points="0,-1086.5 413,-1086.5 "/>
<text text-anchor="start" x="8" y="-1071.3" font-family="Times,serif" font-size="14.00">last_commit_days_since</text>
<polyline fill="none" stroke="black" points="261,-1063.5 261,-1086.5 "/>
<text text-anchor="end" x="405" y="-1071.3" font-family="Times,serif" font-size="14.00">3.66</text>
<polyline fill="none" stroke="black" points="0,-1063.5 413,-1063.5 "/>
<text text-anchor="start" x="8" y="-1048.3" font-family="Times,serif" font-size="14.00">last_commit_months_since</text>
<polyline fill="none" stroke="black" points="269,-1040.5 269,-1063.5 "/>
<text text-anchor="end" x="405" y="-1048.3" font-family="Times,serif" font-size="14.00">0.13</text>
<polyline fill="none" stroke="black" points="0,-1040.5 413,-1040.5 "/>
<text text-anchor="start" x="8" y="-1025.3" font-family="Times,serif" font-size="14.00">last_commit_years_since</text>
<polyline fill="none" stroke="black" points="263,-1017.5 263,-1040.5 "/>
<text text-anchor="end" x="405" y="-1025.3" font-family="Times,serif" font-size="14.00">0.01</text>
<polyline fill="none" stroke="black" points="0,-1017.5 413,-1017.5 "/>
<text text-anchor="start" x="8" y="-1002.3" font-family="Times,serif" font-size="14.00">num_contributors</text>
<polyline fill="none" stroke="black" points="251,-994.5 251,-1017.5 "/>
<text text-anchor="end" x="405" y="-1002.3" font-family="Times,serif" font-size="14.00">2</text>
<polyline fill="none" stroke="black" points="0,-994.5 413,-994.5 "/>
<text text-anchor="start" x="8" y="-979.3" font-family="Times,serif" font-size="14.00">num_packages</text>
<polyline fill="none" stroke="black" points="244,-971.5 244,-994.5 "/>
<text text-anchor="end" x="405" y="-979.3" font-family="Times,serif" font-size="14.00">2</text>
<polyline fill="none" stroke="black" points="0,-971.5 413,-971.5 "/>
<text text-anchor="start" x="8" y="-956.3" font-family="Times,serif" font-size="14.00">num_packages_tests_passed</text>
<polyline fill="none" stroke="black" points="280,-948.5 280,-971.5 "/>
<text text-anchor="end" x="405" y="-956.3" font-family="Times,serif" font-size="14.00">1</text>
<polyline fill="none" stroke="black" points="0,-948.5 413,-948.5 "/>
<text text-anchor="start" x="8" y="-933.3" font-family="Times,serif" font-size="14.00">num_packages_with_tests</text>
<polyline fill="none" stroke="black" points="274,-925.5 274,-948.5 "/>
<text text-anchor="end" x="405" y="-933.3" font-family="Times,serif" font-size="14.00">1</text>
<polyline fill="none" stroke="black" points="0,-925.5 413,-925.5 "/>
<text text-anchor="start" x="8" y="-910.3" font-family="Times,serif" font-size="14.00">num_packages_with_tests_files</text>
<polyline fill="none" stroke="black" points="289,-902.5 289,-925.5 "/>
<text text-anchor="end" x="405" y="-910.3" font-family="Times,serif" font-size="14.00">1</text>
<polyline fill="none" stroke="black" points="0,-902.5 413,-902.5 "/>
<text text-anchor="start" x="8" y="-887.3" font-family="Times,serif" font-size="14.00">package_coverage_avg</text>
<polyline fill="none" stroke="black" points="254,-879.5 254,-902.5 "/>
<text text-anchor="end" x="405" y="-887.3" font-family="Times,serif" font-size="14.00">85.30</text>
<polyline fill="none" stroke="black" points="0,-879.5 413,-879.5 "/>
<text text-anchor="start" x="8" y="-864.3" font-family="Times,serif" font-size="14.00">package_coverage_min</text>
<polyline fill="none" stroke="black" points="255,-856.5 255,-879.5 "/>
<text text-anchor="end" x="405" y="-864.3" font-family="Times,serif" font-size="14.00">85.30</text>
</g>
<!-- golang.org/x/image -->
<g id="node2" class="node">
<title>golang.org/x/image</title>
<polygon fill="none" stroke="black" points="76.5,-428.5 76.5,-819.5 336.5,-819.5 336.5,-428.5 76.5,-428.5"/>
<text text-anchor="middle" x="206.5" y="-804.3" font-family="Times,serif" font-size="14.00">golang.org/x/image</text>
<polyline fill="none" stroke="black" points="76.5,-796.5 336.5,-796.5 "/>
<text text-anchor="start" x="84.5" y="-781.3" font-family="Times,serif" font-size="14.00">can_get_codecov</text>
<polyline fill="none" stroke="black" points="240.5,-773.5 240.5,-796.5 "/>
<text text-anchor="end" x="328.5" y="-781.3" font-family="Times,serif" font-size="14.00">false</text>
<polyline fill="none" stroke="black" points="76.5,-773.5 336.5,-773.5 "/>
<text text-anchor="start" x="84.5" y="-758.3" font-family="Times,serif" font-size="14.00">can_get_gitstats</text>
<polyline fill="none" stroke="black" points="239.5,-750.5 239.5,-773.5 "/>
<text text-anchor="end" x="328.5" y="-758.3" font-family="Times,serif" font-size="14.00">true</text>
<polyline fill="none" stroke="black" points="76.5,-750.5 336.5,-750.5 "/>
<text text-anchor="start" x="84.5" y="-735.3" font-family="Times,serif" font-size="14.00">can_run_tests</text>
<polyline fill="none" stroke="black" points="232.5,-727.5 232.5,-750.5 "/>
<text text-anchor="end" x="328.5" y="-735.3" font-family="Times,serif" font-size="14.00">true</text>
<polyline fill="none" stroke="black" points="76.5,-727.5 336.5,-727.5 "/>
<text text-anchor="start" x="84.5" y="-712.3" font-family="Times,serif" font-size="14.00">has_test_files</text>
<polyline fill="none" stroke="black" points="231.5,-704.5 231.5,-727.5 "/>
<text text-anchor="end" x="328.5" y="-712.3" font-family="Times,serif" font-size="14.00">true</text>
<polyline fill="none" stroke="black" points="76.5,-704.5 336.5,-704.5 "/>
<text text-anchor="start" x="84.5" y="-689.3" font-family="Times,serif" font-size="14.00">has_tests</text>
<polyline fill="none" stroke="black" points="219.5,-681.5 219.5,-704.5 "/>
<text text-anchor="end" x="328.5" y="-689.3" font-family="Times,serif" font-size="14.00">true</text>
<polyline fill="none" stroke="black" points="76.5,-681.5 336.5,-681.5 "/>
<text text-anchor="start" x="84.5" y="-666.3" font-family="Times,serif" font-size="14.00">last_commit</text>
<polyline fill="none" stroke="black" points="161.5,-658.5 161.5,-681.5 "/>
<text text-anchor="end" x="328.5" y="-666.3" font-family="Times,serif" font-size="14.00">2021&#45;02&#45;20T07:54:48+08:00</text>
<polyline fill="none" stroke="black" points="76.5,-658.5 336.5,-658.5 "/>
<text text-anchor="start" x="84.5" y="-643.3" font-family="Times,serif" font-size="14.00">last_commit_days_since</text>
<polyline fill="none" stroke="black" points="258.5,-635.5 258.5,-658.5 "/>
<text text-anchor="end" x="328.5" y="-643.3" font-family="Times,serif" font-size="14.00">59.36</text>
<polyline fill="none" stroke="black" points="76.5,-635.5 336.5,-635.5 "/>
<text text-anchor="start" x="84.5" y="-620.3" font-family="Times,serif" font-size="14.00">last_commit_months_since</text>
<polyline fill="none" stroke="black" points="269.5,-612.5 269.5,-635.5 "/>
<text text-anchor="end" x="328.5" y="-620.3" font-family="Times,serif" font-size="14.00">2.12</text>
<polyline fill="none" stroke="black" points="76.5,-612.5 336.5,-612.5 "/>
<text text-anchor="start" x="84.5" y="-597.3" font-family="Times,serif" font-size="14.00">last_commit_years_since</text>
<polyline fill="none" stroke="black" points="263.5,-589.5 263.5,-612.5 "/>
<text text-anchor="end" x="328.5" y="-597.3" font-family="Times,serif" font-size="14.00">0.18</text>
<polyline fill="none" stroke="black" points="76.5,-589.5 336.5,-589.5 "/>
<text text-anchor="start" x="84.5" y="-574.3" font-family="Times,serif" font-size="14.00">num_contributors</text>
<polyline fill="none" stroke="black" points="247.5,-566.5 247.5,-589.5 "/>
<text text-anchor="end" x="328.5" y="-574.3" font-family="Times,serif" font-size="14.00">44</text>
<polyline fill="none" stroke="black" points="76.5,-566.5 336.5,-566.5 "/>
<text text-anchor="start" x="84.5" y="-551.3" font-family="Times,serif" font-size="14.00">num_packages</text>
<polyline fill="none" stroke="black" points="240.5,-543.5 240.5,-566.5 "/>
<text text-anchor="end" x="328.5" y="-551.3" font-family="Times,serif" font-size="14.00">32</text>
<polyline fill="none" stroke="black" points="76.5,-543.5 336.5,-543.5 "/>
<text text-anchor="start" x="84.5" y="-528.3" font-family="Times,serif" font-size="14.00">num_packages_tests_passed</text>
<polyline fill="none" stroke="black" points="276.5,-520.5 276.5,-543.5 "/>
<text text-anchor="end" x="328.5" y="-528.3" font-family="Times,serif" font-size="14.00">14</text>
<polyline fill="none" stroke="black" points="76.5,-520.5 336.5,-520.5 "/>
<text text-anchor="start" x="84.5" y="-505.3" font-family="Times,serif" font-size="14.00">num_packages_with_tests</text>
<polyline fill="none" stroke="black" points="270.5,-497.5 270.5,-520.5 "/>
<text text-anchor="end" x="328.5" y="-505.3" font-family="Times,serif" font-size="14.00">14</text>
<polyline fill="none" stroke="black" points="76.5,-497.5 336.5,-497.5 "/>
<text text-anchor="start" x="84.5" y="-482.3" font-family="Times,serif" font-size="14.00">num_packages_with_tests_files</text>
<polyline fill="none" stroke="black" points="285.5,-474.5 285.5,-497.5 "/>
<text text-anchor="end" x="328.5" y="-482.3" font-family="Times,serif" font-size="14.00">14</text>
<polyline fill="none" stroke="black" points="76.5,-474.5 336.5,-474.5 "/>
<text text-anchor="start" x="84.5" y="-459.3" font-family="Times,serif" font-size="14.00">package_coverage_avg</text>
<polyline fill="none" stroke="black" points="257.5,-451.5 257.5,-474.5 "/>
<text text-anchor="end" x="328.5" y="-459.3" font-family="Times,serif" font-size="14.00">5.60</text>
<polyline fill="none" stroke="black" points="76.5,-451.5 336.5,-451.5 "/>
<text text-anchor="start" x="84.5" y="-436.3" font-family="Times,serif" font-size="14.00">package_coverage_min</text>
<polyline fill="none" stroke="black" points="255.5,-428.5 255.5,-451.5 "/>
<text text-anchor="end" x="328.5" y="-436.3" font-family="Times,serif" font-size="14.00">54.00</text>
</g>
<!-- github.com/nikolaydubina/calendarheatmap&#45;&gt;golang.org/x/image -->
<g id="edge1" class="edge">
<title>github.com/nikolaydubina/calendarheatmap&#45;&gt;golang.org/x/image</title>
<path fill="none" stroke="black" d="M206.5,-856.16C206.5,-847.34 206.5,-838.53 206.5,-829.77"/>
<polygon fill="black" stroke="black" points="210,-829.53 206.5,-819.53 203,-829.53 210,-829.53"/>
</g>
<!-- golang.org/x/text -->
<g id="node3" class="node">
<title>golang.org/x/text</title>
<polygon fill="none" stroke="black" points="76.5,-0.5 76.5,-391.5 336.5,-391.5 336.5,-0.5 76.5,-0.5"/>
<text text-anchor="middle" x="206.5" y="-376.3" font-family="Times,serif" font-size="14.00">golang.org/x/text</text>
<polyline fill="none" stroke="black" points="76.5,-368.5 336.5,-368.5 "/>
<text text-anchor="start" x="84.5" y="-353.3" font-family="Times,serif" font-size="14.00">can_get_codecov</text>
<polyline fill="none" stroke="black" points="240.5,-345.5 240.5,-368.5 "/>
<text text-anchor="end" x="328.5" y="-353.3" font-family="Times,serif" font-size="14.00">false</text>
<polyline fill="none" stroke="black" points="76.5,-345.5 336.5,-345.5 "/>
<text text-anchor="start" x="84.5" y="-330.3" font-family="Times,serif" font-size="14.00">can_get_gitstats</text>
<polyline fill="none" stroke="black" points="239.5,-322.5 239.5,-345.5 "/>
<text text-anchor="end" x="328.5" y="-330.3" font-family="Times,serif" font-size="14.00">true</text>
<polyline fill="none" stroke="black" points="76.5,-322.5 336.5,-322.5 "/>
<text text-anchor="start" x="84.5" y="-307.3" font-family="Times,serif" font-size="14.00">can_run_tests</text>
<polyline fill="none" stroke="black" points="232.5,-299.5 232.5,-322.5 "/>
<text text-anchor="end" x="328.5" y="-307.3" font-family="Times,serif" font-size="14.00">true</text>
<polyline fill="none" stroke="black" points="76.5,-299.5 336.5,-299.5 "/>
<text text-anchor="start" x="84.5" y="-284.3" font-family="Times,serif" font-size="14.00">has_test_files</text>
<polyline fill="none" stroke="black" points="231.5,-276.5 231.5,-299.5 "/>
<text text-anchor="end" x="328.5" y="-284.3" font-family="Times,serif" font-size="14.00">true</text>
<polyline fill="none" stroke="black" points="76.5,-276.5 336.5,-276.5 "/>
<text text-anchor="start" x="84.5" y="-261.3" font-family="Times,serif" font-size="14.00">has_tests</text>
<polyline fill="none" stroke="black" points="219.5,-253.5 219.5,-276.5 "/>
<text text-anchor="end" x="328.5" y="-261.3" font-family="Times,serif" font-size="14.00">true</text>
<polyline fill="none" stroke="black" points="76.5,-253.5 336.5,-253.5 "/>
<text text-anchor="start" x="84.5" y="-238.3" font-family="Times,serif" font-size="14.00">last_commit</text>
<polyline fill="none" stroke="black" points="161.5,-230.5 161.5,-253.5 "/>
<text text-anchor="end" x="328.5" y="-238.3" font-family="Times,serif" font-size="14.00">2021&#45;04&#45;11T08:32:09+08:00</text>
<polyline fill="none" stroke="black" points="76.5,-230.5 336.5,-230.5 "/>
<text text-anchor="start" x="84.5" y="-215.3" font-family="Times,serif" font-size="14.00">last_commit_days_since</text>
<polyline fill="none" stroke="black" points="261.5,-207.5 261.5,-230.5 "/>
<text text-anchor="end" x="328.5" y="-215.3" font-family="Times,serif" font-size="14.00">9.34</text>
<polyline fill="none" stroke="black" points="76.5,-207.5 336.5,-207.5 "/>
<text text-anchor="start" x="84.5" y="-192.3" font-family="Times,serif" font-size="14.00">last_commit_months_since</text>
<polyline fill="none" stroke="black" points="269.5,-184.5 269.5,-207.5 "/>
<text text-anchor="end" x="328.5" y="-192.3" font-family="Times,serif" font-size="14.00">0.33</text>
<polyline fill="none" stroke="black" points="76.5,-184.5 336.5,-184.5 "/>
<text text-anchor="start" x="84.5" y="-169.3" font-family="Times,serif" font-size="14.00">last_commit_years_since</text>
<polyline fill="none" stroke="black" points="263.5,-161.5 263.5,-184.5 "/>
<text text-anchor="end" x="328.5" y="-169.3" font-family="Times,serif" font-size="14.00">0.03</text>
<polyline fill="none" stroke="black" points="76.5,-161.5 336.5,-161.5 "/>
<text text-anchor="start" x="84.5" y="-146.3" font-family="Times,serif" font-size="14.00">num_contributors</text>
<polyline fill="none" stroke="black" points="247.5,-138.5 247.5,-161.5 "/>
<text text-anchor="end" x="328.5" y="-146.3" font-family="Times,serif" font-size="14.00">56</text>
<polyline fill="none" stroke="black" points="76.5,-138.5 336.5,-138.5 "/>
<text text-anchor="start" x="84.5" y="-123.3" font-family="Times,serif" font-size="14.00">num_packages</text>
<polyline fill="none" stroke="black" points="240.5,-115.5 240.5,-138.5 "/>
<text text-anchor="end" x="328.5" y="-123.3" font-family="Times,serif" font-size="14.00">63</text>
<polyline fill="none" stroke="black" points="76.5,-115.5 336.5,-115.5 "/>
<text text-anchor="start" x="84.5" y="-100.3" font-family="Times,serif" font-size="14.00">num_packages_tests_passed</text>
<polyline fill="none" stroke="black" points="276.5,-92.5 276.5,-115.5 "/>
<text text-anchor="end" x="328.5" y="-100.3" font-family="Times,serif" font-size="14.00">48</text>
<polyline fill="none" stroke="black" points="76.5,-92.5 336.5,-92.5 "/>
<text text-anchor="start" x="84.5" y="-77.3" font-family="Times,serif" font-size="14.00">num_packages_with_tests</text>
<polyline fill="none" stroke="black" points="270.5,-69.5 270.5,-92.5 "/>
<text text-anchor="end" x="328.5" y="-77.3" font-family="Times,serif" font-size="14.00">48</text>
<polyline fill="none" stroke="black" points="76.5,-69.5 336.5,-69.5 "/>
<text text-anchor="start" x="84.5" y="-54.3" font-family="Times,serif" font-size="14.00">num_packages_with_tests_files</text>
<polyline fill="none" stroke="black" points="285.5,-46.5 285.5,-69.5 "/>
<text text-anchor="end" x="328.5" y="-54.3" font-family="Times,serif" font-size="14.00">48</text>
<polyline fill="none" stroke="black" points="76.5,-46.5 336.5,-46.5 "/>
<text text-anchor="start" x="84.5" y="-31.3" font-family="Times,serif" font-size="14.00">package_coverage_avg</text>
<polyline fill="none" stroke="black" points="257.5,-23.5 257.5,-46.5 "/>
<text text-anchor="end" x="328.5" y="-31.3" font-family="Times,serif" font-size="14.00">5.80</text>
<polyline fill="none" stroke="black" points="76.5,-23.5 336.5,-23.5 "/>
<text text-anchor="start" x="84.5" y="-8.3" font-family="Times,serif" font-size="14.00">package_coverage_min</text>
<polyline fill="none" stroke="black" points="255.5,-0.5 255.5,-23.5 "/>
<text text-anchor="end" x="328.5" y="-8.3" font-family="Times,serif" font-size="14.00">81.48</text>
</g>
<!-- golang.org/x/image&#45;&gt;golang.org/x/text -->
<g id="edge2" class="edge">
<title>golang.org/x/image&#45;&gt;golang.org/x/text</title>
<path fill="none" stroke="black" d="M206.5,-428.39C206.5,-419.64 206.5,-410.85 206.5,-402.08"/>
<polygon fill="black" stroke="black" points="210,-401.8 206.5,-391.8 203,-401.8 210,-401.8"/>
</g>
</g>
</svg>
